<svg width="267" height="63" viewBox="0 0 267 63" fill="none" xmlns="http://www.w3.org/2000/svg">
<path d="M13.5433 8.67444L80.3873 2.83777L266.718 8.67444V53.6744L182.23 62.1146L2.20703 53.6744L13.5433 8.67444Z" fill="#E8C7CE"/>
<path d="M264.011 6.32031V50.3838L180.009 58.7754L0.633789 50.3652L11.7334 6.30371L78.1914 0.5L264.011 6.32031Z" stroke="#E07A8A"/>
<path d="M33.0144 33.2054C32.9064 32.6834 32.7804 32.2694 32.6544 31.8374L35.1924 31.4234C35.2464 31.7834 35.3004 32.3954 35.3904 32.8274C35.4264 33.0794 35.5344 33.6734 35.6784 34.4834C37.2084 34.2314 38.5764 34.0154 39.2244 33.8894C39.8004 33.7814 40.4844 33.6374 40.9164 33.5114L41.3484 35.8694C40.9524 35.9054 40.2324 36.0134 39.6924 36.0854C38.9544 36.2114 37.5864 36.4274 36.0924 36.6614C36.2724 37.5614 36.4524 38.5514 36.6504 39.5414C38.2704 39.2714 39.7464 39.0194 40.5564 38.8574C41.2584 38.7134 41.9244 38.5694 42.3924 38.4254L42.8784 40.8014C42.3924 40.8374 41.6544 40.9634 40.9704 41.0714C40.1064 41.2154 38.6484 41.4494 37.0644 41.7014C37.3524 43.1774 37.6044 44.3834 37.7124 44.9414C37.8384 45.4814 38.0184 46.1294 38.1804 46.7054L35.5884 47.1734C35.4984 46.5074 35.4444 45.8774 35.3364 45.3554C35.2464 44.8334 35.0124 43.5914 34.7244 42.0794C32.8884 42.3854 31.1964 42.6734 30.4224 42.8174C29.6484 42.9614 29.0364 43.0874 28.6224 43.1954L28.1184 40.7834C28.6044 40.7654 29.4144 40.6574 29.9904 40.5854C30.8184 40.4774 32.4924 40.2074 34.3104 39.9194C34.1304 38.9474 33.9324 37.9394 33.7704 37.0214C32.1864 37.2734 30.8004 37.5074 30.2424 37.5974C29.6664 37.7234 29.1984 37.8134 28.5864 37.9754L28.1004 35.4914C28.6764 35.4734 29.2164 35.4374 29.7744 35.3654C30.4044 35.2934 31.7904 35.0954 33.3384 34.8434C33.1944 34.0874 33.0684 33.4934 33.0144 33.2054ZM51.6624 34.6274C51.7344 35.0414 51.8424 35.5274 51.9504 35.9954C52.0764 36.4274 52.2384 37.0394 52.4364 37.7414C54.7224 37.3094 57.2424 36.8234 57.9444 36.6614C58.2684 36.6074 58.6104 36.4994 58.8624 36.3734L60.3024 37.3994C59.5464 38.9834 57.7284 41.6834 56.4684 43.0334L54.4884 42.0434C55.4064 41.2154 56.6664 39.6854 57.1524 38.8034C56.7204 38.8754 54.9204 39.2534 52.9764 39.6494C53.6604 42.1334 54.4344 44.9054 54.7044 45.8414C54.8124 46.1474 55.0464 46.9574 55.1904 47.3174L52.7424 47.9294C52.6884 47.4434 52.5624 46.8494 52.4184 46.3454C52.1484 45.3734 51.4104 42.5654 50.7624 40.1174C49.2504 40.4414 47.9364 40.7114 47.3964 40.8374L46.8384 38.6774C47.4144 38.6234 47.9004 38.5694 48.4944 38.4614C48.7464 38.4254 49.3944 38.3174 50.2224 38.1554C50.0424 37.4534 49.8804 36.8774 49.7544 36.4814C49.6284 36.0134 49.4484 35.5814 49.2504 35.2034L51.6624 34.6274ZM76.9164 32.0894C76.8804 32.5934 76.8444 33.1694 76.8444 33.8894V37.4534C76.8444 41.3234 76.0884 42.9974 74.7564 44.4734C73.5684 45.7694 71.6964 46.6514 70.3824 47.0654L68.5104 45.0854C70.2924 44.6714 71.7504 43.9874 72.8304 42.8174C74.0724 41.4674 74.3064 40.1174 74.3064 37.3094V33.8894C74.3064 33.1694 74.2704 32.5934 74.1984 32.0894H76.9164ZM68.5644 32.2334C68.5284 32.6474 68.5104 33.0434 68.5104 33.6194V39.7034C68.5104 40.1534 68.5284 40.8554 68.5644 41.2694H65.9544C65.9724 40.9274 66.0444 40.2254 66.0444 39.6854V33.6194C66.0444 33.2774 66.0264 32.6474 65.9724 32.2334H68.5644ZM97.6524 33.8714C97.4544 34.1054 97.1124 34.5374 96.9504 34.8074C96.1044 36.2114 94.3944 38.4794 92.6304 39.7394L90.7584 38.2454C92.1984 37.3634 93.6024 35.7794 94.0704 34.8974H84.6924C83.9364 34.8974 83.3424 34.9514 82.4964 35.0234V32.5214C83.1804 32.6294 83.9364 32.7014 84.6924 32.7014H94.3944C94.8984 32.7014 95.8884 32.6474 96.2304 32.5394L97.6524 33.8714ZM90.3084 36.3014C90.3084 40.7654 90.2184 44.4374 85.3224 47.0654L83.2164 45.3554C83.7924 45.1574 84.4404 44.8514 85.1064 44.3654C87.3924 42.7814 87.8244 40.8734 87.8244 37.9214C87.8244 37.3634 87.7884 36.8774 87.6984 36.3014H90.3084ZM101.846 32.4674C102.422 32.5574 103.16 32.6114 103.772 32.6114H109.658C110.27 32.6114 110.99 32.5574 111.602 32.4674V34.7894C110.99 34.7534 110.288 34.7354 109.658 34.7354H103.772C103.16 34.7354 102.386 34.7534 101.846 34.7894V32.4674ZM99.7584 37.0754C100.298 37.1474 100.928 37.1834 101.486 37.1834H113.276C113.654 37.1834 114.446 37.1474 114.914 37.0754V39.4154C114.464 39.3794 113.78 39.3614 113.276 39.3614H108.938C108.83 41.2154 108.434 42.7274 107.786 43.9874C107.156 45.2474 105.77 46.6334 104.168 47.4434L102.062 45.9134C103.34 45.4274 104.6 44.4014 105.32 43.3394C106.058 42.2234 106.364 40.8734 106.436 39.3614H101.486C100.964 39.3614 100.262 39.3974 99.7584 39.4334V37.0754ZM112.682 31.2254C113.132 31.8914 113.762 33.0254 114.104 33.6914L112.664 34.3214C112.286 33.5834 111.728 32.5034 111.242 31.8194L112.682 31.2254ZM114.806 30.4154C115.274 31.0994 115.94 32.2334 116.264 32.8634L114.824 33.4934C114.446 32.7374 113.87 31.6934 113.384 31.0094L114.806 30.4154ZM131.168 32.0534C131.51 32.7734 131.924 33.8174 132.122 34.5194L130.88 34.9154C130.628 34.1594 130.304 33.1694 129.962 32.4494L131.168 32.0534ZM133.022 31.4774C133.364 32.1974 133.778 33.2414 134.012 33.9254L132.77 34.3214C132.518 33.5474 132.176 32.5754 131.798 31.8734L133.022 31.4774ZM129.62 38.3714C129.62 42.8354 128.558 45.5534 124.202 47.4794L122.276 45.6614C125.75 44.4374 127.28 42.8894 127.28 38.4614V37.7774H123.014V40.2254C123.014 41.0354 123.068 41.7554 123.086 42.1154H120.566C120.62 41.7554 120.674 41.0354 120.674 40.2254V37.7774H119.144C118.244 37.7774 117.596 37.8314 117.2 37.8494V35.4014C117.524 35.4554 118.244 35.5634 119.144 35.5634H120.674V33.7814C120.674 33.2594 120.62 32.7194 120.566 32.1614H123.122C123.086 32.5034 123.014 33.0794 123.014 33.7994V35.5634H127.28V33.6734C127.28 32.9534 127.226 32.3594 127.172 31.9994H129.746C129.692 32.3774 129.62 32.9534 129.62 33.6734V35.5634H130.952C131.906 35.5634 132.446 35.5274 132.932 35.4374V37.8314C132.536 37.7954 131.906 37.7774 130.97 37.7774H129.62V38.3714ZM135.578 39.0554C138.8 38.2274 141.446 37.0574 143.444 35.8334C145.298 34.6814 147.35 32.8814 148.52 31.4594L150.464 33.3134C149.096 34.6634 147.368 36.0674 145.622 37.2194V44.4914C145.622 45.2834 145.658 46.3994 145.784 46.8494H142.94C143.012 46.4174 143.066 45.2834 143.066 44.4914V38.7314C141.212 39.7034 138.926 40.6754 136.712 41.3234L135.578 39.0554ZM156.8 32.3774C158.06 33.2234 160.4 35.0954 161.444 36.1934L159.608 38.0654C158.672 37.0574 156.422 35.0954 155.108 34.1774L156.8 32.3774ZM154.55 44.3654C157.358 43.9694 159.698 43.0514 161.444 42.0074C164.522 40.1894 166.862 37.4354 167.996 35.0054L169.4 37.5434C168.032 39.9734 165.638 42.4574 162.74 44.2034C160.922 45.3014 158.6 46.3094 156.062 46.7414L154.55 44.3654ZM175.538 43.6634V38.7494C173.936 39.0734 172.514 39.3614 171.758 39.5414L171.326 37.1834C172.172 37.0754 173.756 36.8054 175.538 36.4814V33.9074C175.538 33.3134 175.484 32.3954 175.394 31.8374H178.076C178.004 32.3954 177.914 33.2954 177.914 33.9074V36.0314C180.542 35.5274 183.062 35.0234 183.872 34.8254C184.376 34.7174 184.808 34.5914 185.15 34.4114L186.878 35.7434C186.716 35.9954 186.446 36.4094 186.284 36.7334C185.492 38.2274 183.854 40.6934 182.558 41.9714L180.578 40.8014C181.766 39.7394 182.954 38.1014 183.458 37.1474C182.9 37.2734 180.47 37.7414 177.914 38.2634V43.0334C177.914 44.1494 178.238 44.5454 180.218 44.5454C182.108 44.5454 184.106 44.2934 185.888 43.9334L185.816 46.3814C184.322 46.5974 182.162 46.7774 180.236 46.7774C176.132 46.7774 175.538 45.7874 175.538 43.6634ZM193.592 31.9634C195.95 32.2514 201.134 33.2954 203.402 34.0874L202.484 36.3374C200.396 35.5634 195.284 34.4114 192.746 34.0874L193.592 31.9634ZM192.764 36.8054C195.338 37.2374 199.91 38.2094 202.178 39.0014L201.296 41.2514C199.226 40.4594 194.618 39.4154 191.936 38.9834L192.764 36.8054ZM191.846 41.9534C194.924 42.4394 200.468 43.7354 202.934 44.6534L201.944 46.9034C199.514 45.8954 193.826 44.6534 190.946 44.2214L191.846 41.9534ZM214.706 33.9254C214.706 33.3134 214.634 32.3774 214.472 31.8194H217.334C217.226 32.3774 217.19 33.3674 217.19 33.9434V35.9054H221.24C222.068 35.9054 222.824 35.8334 223.202 35.7974V38.2454C222.824 38.2274 221.942 38.1734 221.222 38.1734H217.172C217.064 41.7914 215.93 44.7434 212.042 47.0654L209.81 45.4094C213.338 43.8074 214.544 41.2154 214.688 38.1734H210.098C209.306 38.1734 208.586 38.2274 208.028 38.2634V35.7794C208.568 35.8334 209.306 35.9054 210.026 35.9054H214.706V33.9254ZM226.118 37.7234C226.766 37.7774 228.08 37.8314 229.016 37.8314H238.682C239.528 37.8314 240.32 37.7594 240.788 37.7234V40.5494C240.356 40.5314 239.438 40.4594 238.682 40.4594H229.016C227.99 40.4594 226.784 40.4954 226.118 40.5494V37.7234Z" fill="#4A5568"/>
<path d="M96.1185 17.2114H93.1925C93.9905 19.1994 95.2085 21.1314 96.5385 22.2794C96.1325 22.5734 95.5725 23.1754 95.2925 23.6094C94.2005 22.5314 93.2205 20.9214 92.4645 19.1574V25.2754H90.8125V19.4374C90.0005 21.1314 88.9645 22.6294 87.8305 23.6794C87.5645 23.3154 87.0745 22.7834 86.6965 22.4474V25.2474H85.0585V18.1354C84.6805 18.5974 84.3025 19.0314 83.9105 19.3954C83.7425 18.9894 83.2385 18.0514 82.9445 17.6454C84.3585 16.3714 85.7025 14.3554 86.4865 12.2694L88.1385 12.8014C87.7465 13.7814 87.2565 14.8034 86.6965 15.7554V22.2794C88.0825 21.1454 89.3425 19.1994 90.1545 17.2114H87.2565V15.5874H90.8125V12.4234H92.4645V15.5874H96.1185V17.2114ZM103.665 22.3774H104.953V21.5374H103.665V22.3774ZM104.953 19.6194H103.665V20.4594H104.953V19.6194ZM104.911 14.7054H103.525C103.735 15.2374 103.861 15.9514 103.889 16.4134L103.259 16.5674H105.261L104.547 16.4134C104.687 15.9234 104.841 15.2094 104.911 14.7054ZM100.235 15.6994V14.1874H99.3105V15.6994H100.235ZM99.3105 21.5934L100.235 21.4254V19.8994H99.3105V21.5934ZM100.235 18.5554V17.0434H99.3105V18.5554H100.235ZM108.831 18.3734L110.161 18.6674C109.783 20.0114 109.265 21.2154 108.607 22.2654C108.733 22.9374 108.887 23.3154 109.055 23.3294C109.223 23.3294 109.335 22.6854 109.391 21.5794C109.629 21.9154 110.231 22.3494 110.469 22.5034C110.119 24.7714 109.461 25.2614 108.985 25.2614C108.355 25.2474 107.893 24.6874 107.557 23.6654C107.011 24.2954 106.395 24.8414 105.723 25.3034C105.541 25.0234 105.065 24.4774 104.771 24.2114C105.121 24.0014 105.457 23.7634 105.765 23.5114H103.665V24.3234H102.391V18.4714H106.241V23.0774C106.577 22.7554 106.885 22.3914 107.165 21.9994C106.983 20.8654 106.857 19.4654 106.787 17.8554H101.873V16.5674H102.755C102.727 16.1054 102.615 15.4194 102.447 14.9014L103.259 14.7054H102.153V14.1874H101.621V25.2754H100.235V22.8814C99.2405 23.0914 98.2465 23.3014 97.4065 23.4694L97.1265 21.9434C97.3785 21.9154 97.6585 21.8734 97.9525 21.8174V14.1874H97.4065V12.7314H102.209V13.4874H103.581V12.2274H104.995V13.4874H106.423V14.7054H105.219L106.171 14.8874C105.961 15.4894 105.765 16.1194 105.611 16.5674H106.731C106.689 15.2374 106.661 13.7674 106.647 12.2134H108.103V13.2634L108.999 12.7874C109.573 13.4734 110.119 14.3834 110.357 15.0134L109.209 15.6574C109.013 15.0974 108.565 14.2714 108.103 13.6134C108.103 14.6494 108.117 15.6294 108.145 16.5674H110.301V17.8554H108.201C108.229 18.5974 108.271 19.2834 108.327 19.9134C108.523 19.4234 108.691 18.9054 108.831 18.3734ZM117.623 15.1534V16.4274H118.393C118.925 16.0214 119.429 15.6014 119.905 15.1534H117.623ZM120.675 21.2714V20.3754H115.859V21.2714H120.675ZM115.859 23.4834H120.675V22.5314H115.859V23.4834ZM124.021 17.8974H118.981C118.435 18.2894 117.903 18.6534 117.329 19.0174H122.425V25.2334H120.675V24.8694H115.859V25.2894H114.193V20.7114C113.493 21.0194 112.765 21.3274 112.051 21.5934C111.855 21.2294 111.351 20.5574 111.043 20.2214C112.877 19.6474 114.627 18.8494 116.237 17.8974H111.477V16.4274H115.971V15.1534H112.681V13.7114H115.971V12.1994H117.623V13.7114H120.661V14.3974C121.193 13.8234 121.669 13.2354 122.103 12.6194L123.531 13.3474C122.733 14.4534 121.795 15.4894 120.773 16.4274H124.021V17.8974ZM124.945 26.6054L128.431 12.7734H129.789L126.317 26.6054H124.945ZM133.312 12.2134L134.782 12.7874C133.9 13.9914 132.598 15.3494 131.436 16.2034C131.226 15.8674 130.82 15.2794 130.568 14.9854C131.562 14.2854 132.724 13.1234 133.312 12.2134ZM140.578 21.6074H138.002C138.352 21.9854 138.786 22.3074 139.276 22.6014C139.78 22.3074 140.228 21.9854 140.578 21.6074ZM137.638 18.1214V18.7374H141.152V18.1214H137.638ZM137.638 16.5394V17.1414H141.152V16.5394H137.638ZM141.838 20.4314L142.832 20.9074C142.356 21.8734 141.67 22.6434 140.816 23.2594C141.726 23.5674 142.748 23.7634 143.882 23.8754C143.546 24.1974 143.14 24.8274 142.944 25.2474C141.53 25.0514 140.312 24.6874 139.262 24.1554C138.072 24.7014 136.7 25.0514 135.258 25.2754C135.118 24.8694 134.824 24.2674 134.544 23.9314C135.72 23.8054 136.84 23.5814 137.82 23.2314C137.47 22.9514 137.148 22.6434 136.868 22.3074C136.49 22.6154 136.098 22.8954 135.706 23.1194C135.44 22.8534 134.894 22.3214 134.558 22.0834C135.65 21.5514 136.714 20.7114 137.4 19.7734H136.154V16.2734C136.014 16.4414 135.86 16.6094 135.72 16.7634C135.51 16.5954 135.146 16.3294 134.81 16.1194C134.558 16.5534 134.264 17.0014 133.956 17.4354V25.3034H132.402V19.3114C132.038 19.7034 131.674 20.0394 131.31 20.3474C131.156 19.9834 130.708 19.1434 130.442 18.7934C131.604 17.9114 132.836 16.5534 133.564 15.1954L134.572 15.5734C135.44 14.7194 136.168 13.4594 136.56 12.1994L138.184 12.5774C138.086 12.8854 137.96 13.1934 137.82 13.5014H143.476V14.8454H137.134C137.008 15.0694 136.868 15.2934 136.728 15.5034H142.692V19.7734H139.136C138.982 20.0114 138.828 20.2494 138.646 20.4874H141.558L141.838 20.4314ZM151.092 22.3774H152.38V21.5374H151.092V22.3774ZM152.38 19.6194H151.092V20.4594H152.38V19.6194ZM152.338 14.7054H150.952C151.162 15.2374 151.288 15.9514 151.316 16.4134L150.686 16.5674H152.688L151.974 16.4134C152.114 15.9234 152.268 15.2094 152.338 14.7054ZM147.662 15.6994V14.1874H146.738V15.6994H147.662ZM146.738 21.5934L147.662 21.4254V19.8994H146.738V21.5934ZM147.662 18.5554V17.0434H146.738V18.5554H147.662ZM156.258 18.3734L157.588 18.6674C157.21 20.0114 156.692 21.2154 156.034 22.2654C156.16 22.9374 156.314 23.3154 156.482 23.3294C156.65 23.3294 156.762 22.6854 156.818 21.5794C157.056 21.9154 157.658 22.3494 157.896 22.5034C157.546 24.7714 156.888 25.2614 156.412 25.2614C155.782 25.2474 155.32 24.6874 154.984 23.6654C154.438 24.2954 153.822 24.8414 153.15 25.3034C152.968 25.0234 152.492 24.4774 152.198 24.2114C152.548 24.0014 152.884 23.7634 153.192 23.5114H151.092V24.3234H149.818V18.4714H153.668V23.0774C154.004 22.7554 154.312 22.3914 154.592 21.9994C154.41 20.8654 154.284 19.4654 154.214 17.8554H149.3V16.5674H150.182C150.154 16.1054 150.042 15.4194 149.874 14.9014L150.686 14.7054H149.58V14.1874H149.048V25.2754H147.662V22.8814C146.668 23.0914 145.674 23.3014 144.834 23.4694L144.554 21.9434C144.806 21.9154 145.086 21.8734 145.38 21.8174V14.1874H144.834V12.7314H149.636V13.4874H151.008V12.2274H152.422V13.4874H153.85V14.7054H152.646L153.598 14.8874C153.388 15.4894 153.192 16.1194 153.038 16.5674H154.158C154.116 15.2374 154.088 13.7674 154.074 12.2134H155.53V13.2634L156.426 12.7874C157 13.4734 157.546 14.3834 157.784 15.0134L156.636 15.6574C156.44 15.0974 155.992 14.2714 155.53 13.6134C155.53 14.6494 155.544 15.6294 155.572 16.5674H157.728V17.8554H155.628C155.656 18.5974 155.698 19.2834 155.754 19.9134C155.95 19.4234 156.118 18.9054 156.258 18.3734ZM167.668 18.9474H162.852C163.412 19.9694 164.196 20.8234 165.204 21.5234C166.226 20.8514 167.066 20.0114 167.668 18.9474ZM168.9 17.2534L170.062 17.9114C169.362 19.8294 168.214 21.2994 166.772 22.4194C168.158 23.0494 169.81 23.4694 171.742 23.6794C171.392 24.0714 170.916 24.8134 170.678 25.3034C168.452 24.9814 166.604 24.3934 165.106 23.4974C163.468 24.3654 161.564 24.9254 159.52 25.2754C159.366 24.8274 158.932 24.0434 158.61 23.6654C160.444 23.4274 162.138 23.0214 163.58 22.3914C162.642 21.5654 161.872 20.5574 161.228 19.3674L162.46 18.9474H159.87V17.3094H164.266V15.6854H159.17V14.0334H164.266V12.2134H165.988V14.0334H171.112V15.6854H165.988V17.3094H168.606L168.9 17.2534ZM176.908 18.5414L177.118 20.0254C176.656 20.1654 176.194 20.3054 175.732 20.4314V23.5114C175.732 24.2814 175.592 24.7014 175.172 24.9674C174.752 25.2334 174.15 25.2894 173.24 25.2754C173.198 24.8694 173.016 24.1834 172.82 23.7354C173.324 23.7634 173.8 23.7634 173.968 23.7494C174.136 23.7494 174.206 23.6934 174.206 23.5114V20.8654L172.806 21.2854L172.554 19.6474C173.03 19.5494 173.59 19.4094 174.206 19.2554V16.3854H172.736V14.8454H174.206V12.2134H175.732V14.8454H176.992V16.3854H175.732V18.8494L176.908 18.5414ZM182.942 21.0754H180.506C180.856 21.6074 181.318 22.0694 181.906 22.4754C182.326 22.0834 182.69 21.6214 182.942 21.0754ZM183.894 19.8294L184.79 20.1934C184.44 21.4394 183.908 22.4054 183.18 23.1754C183.978 23.5254 184.874 23.7774 185.868 23.9314C185.518 24.2534 185.098 24.8694 184.888 25.2894C183.782 25.0514 182.788 24.6874 181.934 24.2114C181.164 24.6874 180.254 25.0514 179.288 25.3034C179.12 24.9534 178.672 24.3374 178.392 24.0714C179.232 23.9034 180.002 23.6514 180.674 23.3014C180.268 22.9794 179.918 22.5874 179.61 22.1674C179.064 23.3434 178.266 24.4354 177.02 25.2474C176.796 24.8554 176.32 24.3234 175.942 24.0434C177.79 22.9094 178.504 21.1174 178.826 19.3254H177.146V17.9814H179.008C179.022 17.7574 179.036 17.5334 179.064 17.3234H177.412V16.0214H178.28C178.168 15.5874 177.958 14.9714 177.776 14.5094L179.036 14.1594C179.246 14.6774 179.54 15.3494 179.666 15.7694L178.882 16.0214H180.492C180.45 15.5594 180.324 14.8314 180.184 14.2574L181.486 14.0334C181.64 14.5794 181.808 15.2934 181.864 15.7274L180.562 16.0214H182.312C182.704 15.3634 183.152 14.4534 183.404 13.7674C181.542 14.0054 179.386 14.1314 177.51 14.1594C177.482 13.7954 177.314 13.2634 177.16 12.9274C179.61 12.8434 182.48 12.6334 184.202 12.2554L185.14 13.5014C184.608 13.5994 184.034 13.6834 183.404 13.7674L184.944 14.2154C184.566 14.8314 184.16 15.4754 183.796 16.0214H185.126V17.3234H180.646C180.632 17.5474 180.618 17.7574 180.59 17.9814H185.532V19.3254H180.422C180.38 19.5074 180.352 19.6894 180.31 19.8714H183.628L183.894 19.8294Z" fill="#4A5568"/>
</svg>
