<svg width="289" height="83" viewBox="0 0 289 83" fill="none" xmlns="http://www.w3.org/2000/svg">
<path d="M241.138 60.6552C242.8 62.3165 243.371 60.7224 245.732 60.7628C248.086 60.8031 248.086 60.904 250.447 61.0049C252.808 61.1058 252.808 61.052 255.162 61.2202C257.523 61.3883 257.523 61.2336 259.877 61.469C262.238 61.7044 262.238 61.8726 264.592 62.182C266.953 62.4914 266.953 62.5721 269.314 62.9622C271.675 63.3456 271.675 63.3187 274.029 63.7895C276.389 64.2536 276.389 64.1931 278.75 64.7446C281.111 65.2961 281.111 65.1078 283.472 65.7535C285.833 66.3925 287.037 68.9955 288.321 67.4149C289.613 65.8275 287.104 64.8455 286.149 62.3905C285.194 59.9355 285.409 59.9018 284.454 57.467C283.499 55.0322 283.324 55.0591 282.369 52.6377C281.414 50.2163 281.636 50.176 280.681 47.7613C279.726 45.3467 279.631 45.3668 278.676 42.9724C277.721 40.5779 276.907 40.6115 276.907 38.2372C276.907 35.8629 277.755 36.28 278.71 34.3294C279.665 32.3788 279.679 32.3923 280.634 30.4552C281.589 28.5248 281.407 28.397 282.362 26.4734C283.317 24.5497 283.459 24.6506 284.414 22.7471C285.05 21.4737 285.687 20.2069 286.324 18.9469C287.279 17.0569 289.552 17.521 288.268 15.1265C286.99 12.7455 285.84 14.3934 283.479 13.7544C281.125 13.1154 281.125 13.102 278.764 12.5504C276.403 11.9989 276.403 12.1065 274.049 11.6357C271.688 11.1716 271.688 11.2321 269.334 10.8487C266.973 10.4654 266.973 10.3039 264.619 10.0013C262.258 9.69187 262.258 9.69859 259.897 9.46318C257.536 9.22777 257.536 9.42282 255.182 9.25467C252.821 9.08652 252.821 8.97218 250.461 8.87129C248.1 8.7704 248.1 8.57534 245.739 8.53498C243.378 8.49463 242.611 6.8871 240.943 8.56861C239.268 10.2569 240.903 11.0102 240.903 13.3777C240.903 15.7453 241.152 15.7453 241.152 18.1129C241.152 20.4805 241.004 20.4805 241.004 22.848C241.004 25.2156 241.206 25.2156 241.206 27.5832C241.206 29.9507 240.903 29.9575 240.903 32.325C240.903 34.6926 241.152 34.6926 241.152 37.0602C241.152 39.4277 240.984 39.4277 240.984 41.802C240.984 44.1763 241.185 44.1696 241.185 46.5372C241.185 48.9048 241.105 48.9115 241.105 51.279C241.105 53.6466 241.602 53.7206 241.132 56.0478C240.641 58.4692 239.463 58.9737 241.132 60.6417L241.138 60.6552Z" fill="#E07A8A"/>
<path d="M47.5459 81.5225C45.8846 83.204 45.1783 81.5898 42.8175 81.5494C40.4634 81.5091 40.4634 81.5023 38.1025 81.3947C35.7417 81.2938 35.7417 81.3745 33.3876 81.2064C31.0267 81.0382 31.0267 80.7423 28.6726 80.5069C26.3118 80.2715 26.3118 80.5069 23.9576 80.1975C21.5968 79.8881 21.5968 79.8074 19.2427 79.4173C17.6688 79.1572 16.0971 78.8747 14.5277 78.5698C12.1669 78.099 12.1669 78.0519 9.80603 77.4936C7.44519 76.9421 7.44519 76.821 5.08434 76.182C2.7235 75.5363 1.67423 77.3456 0.389556 74.9646C-0.901846 72.5701 1.35138 73.1284 2.30648 71.2384C3.26158 69.3484 3.2414 69.3349 4.1965 67.4314C5.1516 65.528 5.13142 65.5145 6.08652 63.5976C7.04162 61.6807 6.92728 61.5999 7.88238 59.6628C8.83748 57.7257 8.82403 57.719 9.77913 55.7685C10.7342 53.8179 11.8306 54.3224 11.8306 51.9481C11.8306 49.5738 10.9158 49.5603 9.96073 47.1658C9.00563 44.7714 8.83075 44.805 7.87565 42.3971C6.92055 39.9891 7.1896 39.9353 6.2345 37.514C5.2794 35.0926 5.13142 35.1128 4.17632 32.6712C3.22122 30.2296 3.32211 30.2162 2.36702 27.7545C1.41192 25.2994 -0.780777 24.5596 0.503899 22.9655C1.78185 21.3782 2.73022 23.6179 5.08434 24.2569C7.43846 24.9026 7.43846 24.8622 9.7993 25.4138C12.1601 25.9653 12.1601 25.9115 14.5143 26.3823C16.8751 26.8532 16.8751 26.7254 19.2292 27.1155C21.5901 27.5056 21.5901 27.8621 23.9442 28.1715C26.305 28.4809 26.305 28.1916 28.6592 28.4271C31.02 28.6625 31.02 28.649 33.3741 28.8172C35.735 28.9853 35.735 28.9315 38.0958 29.0391C40.4567 29.14 40.4566 29.2006 42.8175 29.2409C45.1783 29.2813 45.7366 27.8553 47.4047 29.5234C49.0794 31.1915 47.6939 31.7565 47.6939 34.124C47.6939 36.4916 47.4316 36.4983 47.4316 38.8659C47.4316 41.2335 47.6468 41.2335 47.6468 43.601C47.6468 45.9686 47.5863 45.9686 47.5863 48.3429C47.5863 50.7172 47.4181 50.7105 47.4181 53.0848C47.4181 55.4591 47.5795 55.4523 47.5795 57.8199C47.5795 60.1875 47.4114 60.1875 47.4114 62.5618C47.4114 64.9361 47.4047 64.9293 47.4047 67.2969C47.4047 69.6645 47.3845 69.6645 47.3845 72.0388C47.3845 74.4131 47.1962 74.4333 47.6939 76.747C48.2252 79.2222 49.214 79.841 47.5392 81.536L47.5459 81.5225Z" fill="#E07A8A"/>
<path d="M262.413 33.6031C263.704 33.8452 264.249 35.4528 263.401 36.4886C256.527 44.9029 249.748 52.1401 242.853 60.7898C242.188 61.6238 240.721 61.1866 240.741 60.171L241.333 31.2019C248.47 31.5853 254.886 32.1974 262.413 33.6098V33.6031Z" fill="#FAF7F8"/>
<path d="M25.3567 54.309C32.3047 64.0753 39.1182 72.1062 46.0662 81.8724C46.6783 82.7334 48.0369 82.2894 48.0168 81.2267L47.4652 51.2285C40.0531 51.6792 33.4818 52.419 25.3567 54.3023V54.309Z" fill="#FAF7F8"/>
<path d="M263.678 53.422C262.954 53.7449 259.24 52.9377 257.002 52.7965C254.764 52.6485 252.526 52.8234 250.288 52.7225C248.05 52.6216 245.813 52.5611 243.575 52.5073C241.337 52.4534 239.099 52.3526 236.861 52.3391C234.623 52.3257 232.385 52.3257 230.147 52.3526C227.909 52.3795 225.672 52.366 223.434 52.4265C221.196 52.4938 218.958 52.3593 216.72 52.4602C214.482 52.5543 212.244 52.9848 210.006 53.1126C207.768 53.2404 205.531 53.1395 203.293 53.2942C201.055 53.4489 198.817 53.5565 196.579 53.7381C194.341 53.9197 192.103 54.2426 189.865 54.4376C187.627 54.6394 185.39 54.7269 183.152 54.9421C180.914 55.164 178.676 55.4667 176.438 55.7021C174.2 55.9375 171.962 56.4353 169.724 56.6774C167.486 56.9263 165.249 56.9801 163.011 57.2357C160.773 57.4913 158.535 57.5854 156.297 57.8477C154.059 58.1101 151.821 58.3993 149.583 58.6683C147.345 58.9374 145.108 59.2199 142.87 59.4889C140.632 59.7579 138.394 60.1279 136.156 60.3969C133.918 60.6592 131.68 61.1166 129.442 61.3722C127.204 61.6345 124.967 61.5874 122.729 61.843C120.491 62.0919 118.253 62.3273 116.015 62.5694C113.777 62.8116 111.539 63.2958 109.301 63.5245C107.063 63.7532 104.826 64.0357 102.588 64.2442C100.35 64.4527 98.1118 64.5402 95.8739 64.7352C93.6361 64.9236 91.3982 65.0715 89.1603 65.2397C86.9224 65.4078 84.6845 65.6163 82.4466 65.7576C80.2087 65.8988 77.9708 65.7979 75.7329 65.9055C73.495 66.0199 71.2572 66.4302 69.0193 66.5109C66.7814 66.5916 64.5435 66.6723 62.3056 66.7194C60.0677 66.7665 57.8298 66.6656 55.5919 66.6723C53.5676 66.6791 51.5433 66.6992 49.519 66.6723C47.4947 66.6454 45.4704 66.6723 43.446 66.6118C41.4217 66.5513 39.3974 66.4436 37.3731 66.3427C35.3488 66.2486 33.3245 65.9661 31.3002 65.8316C29.2758 65.697 25.5058 65.8316 25.1158 65.502C24.6329 65.1052 25.1529 62.2668 25.1529 60.6861C25.1529 59.1055 25.2551 57.5383 25.2551 55.9577C25.2551 54.3771 25.2736 52.7965 25.2736 51.2226C25.2736 49.6487 25.2922 48.0613 25.2922 46.4874C25.2922 44.9135 25.3758 43.3329 25.3758 41.7523C25.3758 40.1717 25.0972 38.5709 25.0972 36.9903C25.0972 35.4096 25.1344 33.8357 25.1344 32.2551C25.1344 30.6745 25.4779 29.1275 25.4779 27.5469C25.4779 25.9663 25.2736 24.3722 25.2736 22.7916C25.2736 21.2109 25.0694 19.6101 25.0694 18.0362C25.0694 16.4623 24.7351 13.6172 25.1901 13.2137C25.9422 12.5478 28.5423 13.55 31.8573 13.7719C35.1724 13.9872 35.1724 14.2158 38.4781 14.3638C41.7932 14.5118 41.7932 14.2831 45.0989 14.3638C47.309 14.4176 49.5159 14.4535 51.7197 14.4714C55.0348 14.4916 55.0348 14.6329 58.3498 14.5992C61.6649 14.5656 61.6649 14.4109 64.9706 14.3235C68.2857 14.236 68.2857 14.458 71.6007 14.3235C74.9158 14.1822 74.9158 14.0275 78.2215 13.8459C81.5273 13.6643 81.5273 13.7316 84.8424 13.5096C88.1574 13.2876 88.1574 13.1464 91.4632 12.8908C94.7782 12.6285 94.7782 12.837 98.084 12.5478C101.399 12.2586 101.399 12.1375 104.705 11.8214C108.02 11.5052 108.02 11.6263 111.326 11.2833C114.641 10.9403 114.641 10.6039 117.956 10.2407C121.271 9.87754 121.271 9.99188 124.577 9.61522C127.892 9.23856 127.892 9.39999 131.207 9.0166C134.522 8.62649 134.522 8.67357 137.827 8.28346C141.142 7.89335 141.142 7.91353 144.448 7.51669C147.763 7.11985 147.763 7.01896 151.069 6.62213C154.384 6.22529 154.384 6.23874 157.699 5.85536C161.014 5.46525 161.014 5.37108 164.32 4.99442C167.635 4.61776 167.635 4.75228 170.95 4.38908C174.265 4.02587 174.265 3.80391 177.58 3.46088C180.895 3.11785 180.895 3.22547 184.21 2.90262C187.525 2.57977 187.525 2.64703 190.84 2.35108C194.155 2.06186 194.155 1.87353 197.47 1.61122C200.785 1.3489 200.785 1.29509 204.101 1.07313C207.416 0.851174 207.416 0.878078 210.721 0.689749C214.036 0.508145 214.036 0.53505 217.351 0.393803C220.666 0.252555 220.666 0.514872 223.981 0.420707C227.297 0.326542 227.297 0.131487 230.612 0.0911302C233.927 0.0507739 233.927 -0.0164866 237.242 0.00369156C240.557 0.0238697 240.557 0.306364 243.872 0.387077C247.187 0.467789 247.187 0.306364 250.502 0.454337C253.817 0.60231 253.817 0.783914 257.141 0.999147C260.456 1.21438 261.524 -0.642009 263.883 1.25474C266.214 3.12458 263.883 3.70302 263.883 6.07059C263.883 8.43816 263.976 8.44489 263.976 10.8192C263.976 13.1935 263.678 13.1598 263.678 15.5274C263.678 17.895 263.613 17.8883 263.613 20.2626C263.613 22.6369 263.669 22.6369 263.669 25.0044C263.669 27.372 263.985 27.3989 263.985 29.7732C263.985 32.1475 263.567 32.1071 263.567 34.4747C263.567 36.8423 263.595 36.8423 263.595 39.2166C263.595 41.5909 263.846 41.6111 263.846 43.9786C263.846 46.3462 263.613 46.3327 263.948 48.7205C264.282 51.1351 264.644 53.0386 263.734 53.4489L263.678 53.422Z" fill="#E8C7CE"/>
<path d="M85.9265 38.6975L85.7635 35.5878L82.5999 35.7536L82.7629 38.8633L85.9265 38.6975ZM80.4887 33.9896L87.8226 33.6053L88.1806 40.4359L80.8467 40.8203L80.4887 33.9896ZM79.2303 42.9958L90.0335 42.4297L89.4551 31.3928L78.6519 31.959L79.2303 42.9958ZM76.308 29.8828L91.6769 29.0774L92.5248 45.2552L90.188 45.3776L90.138 44.4249L79.3349 44.9911L79.3848 45.9438L77.1559 46.0606L76.308 29.8828Z" fill="#2F3E5C"/>
<path d="M96.1538 28.3219C96.8232 28.3473 97.7594 28.3179 98.3699 28.2752L107.42 27.6424C107.941 27.6059 108.693 27.5353 108.997 27.496C109.008 27.9102 109.023 28.631 109.059 29.1517L109.71 38.453C109.753 39.0814 109.856 40.0306 109.93 40.5668L107.326 40.7488C107.324 40.4603 107.302 40.155 107.279 39.8139L99.0905 40.3864C98.3902 40.4354 97.3705 40.5608 96.7817 40.6561L96.6022 38.0884C97.2344 38.0983 98.0462 38.0957 98.8542 38.0392L107.132 37.4604L106.612 30.0265L98.5499 30.5903C97.7957 30.643 96.8286 30.7467 96.3283 30.8178L96.1538 28.3219Z" fill="#2F3E5C"/>
<path d="M114.279 31.3384C114.929 31.3471 116.243 31.3093 117.177 31.244L126.82 30.5697C127.664 30.5107 128.449 30.3837 128.913 30.3151L129.11 33.1342C128.678 33.1464 127.757 33.1386 127.003 33.1913L117.361 33.8656C116.337 33.9372 115.136 34.0572 114.476 34.1575L114.279 31.3384Z" fill="#2F3E5C"/>
<path d="M145.771 24.3573C145.627 24.5553 145.303 25.1133 145.141 25.4733C144.529 26.8773 143.521 28.8033 142.315 30.4233C144.097 31.9713 146.275 34.2753 147.337 35.5713L145.285 37.3533C144.115 35.7333 142.441 33.8973 140.749 32.2593C138.841 34.2753 136.447 36.1473 133.981 37.3173L132.127 35.3733C135.025 34.2933 137.815 32.0973 139.507 30.2073C140.695 28.8573 141.793 27.0753 142.189 25.7973H136.087C135.331 25.7973 134.341 25.9053 133.963 25.9233V23.3673C134.449 23.4393 135.547 23.4933 136.087 23.4933H142.441C143.215 23.4933 143.935 23.3853 144.295 23.2593L145.771 24.3573Z" fill="#2F3E5C"/>
<path d="M166.521 30.0165C166.786 33.8053 164.657 36.6427 160.181 37.6594L158.685 35.6168C159.362 35.4973 159.857 35.3544 160.334 35.2127C162.595 34.5133 164.275 32.7358 164.092 30.1142C163.919 27.6363 162.443 25.8809 159.99 25.6375C159.845 27.1813 159.655 28.8546 159.253 30.5789C158.429 34.2814 157.04 36.6159 155.083 36.7528C153.09 36.8922 151.285 34.817 151.073 31.7825C150.783 27.6346 154.126 23.8461 158.777 23.5209C163.23 23.2095 166.247 26.1021 166.521 30.0165ZM153.355 31.3883C153.482 33.2019 154.261 34.0315 154.962 33.9825C155.716 33.9298 156.337 32.7496 156.904 30.274C157.224 28.9164 157.458 27.3663 157.551 25.8621C154.631 26.6798 153.217 29.4131 153.355 31.3883Z" fill="#2F3E5C"/>
<path d="M183.546 23.5162C183.409 23.7191 183.105 24.2881 182.956 24.6535C182.393 26.078 181.453 28.038 180.304 29.6991C182.139 31.184 184.396 33.4106 185.503 34.6687L183.514 36.5213C182.288 34.9431 180.551 33.1666 178.803 31.5887C176.967 33.67 174.639 35.6245 172.216 36.8798L170.295 35.0017C173.154 33.8212 175.865 31.5292 177.49 29.5813C178.63 28.1906 179.666 26.3714 180.017 25.0804L173.918 25.2933C173.163 25.3197 172.177 25.4622 171.8 25.4934L171.711 22.9389C172.199 22.9939 173.298 23.0096 173.838 22.9907L180.188 22.769C180.962 22.742 181.677 22.6089 182.033 22.4704L183.546 23.5162Z" fill="#2F3E5C"/>
<path d="M192.097 23.1905C192.685 23.3121 193.42 23.3876 194.013 23.4193L201.239 23.8064C201.85 23.8392 202.571 23.8418 203.187 23.7846L203.063 26.1033C202.454 26.0346 201.754 25.9611 201.125 25.9274L193.918 25.5413C193.289 25.5075 192.532 25.503 191.973 25.5091L192.097 23.1905ZM189.765 27.6802C190.302 27.763 190.928 27.8506 191.485 27.8805L203.258 28.5112C203.636 28.5314 204.428 28.5379 204.9 28.491L204.774 30.8276C204.327 30.7676 203.645 30.7131 203.142 30.6861L198.81 30.454C198.603 32.2996 198.127 33.7882 197.412 35.0118C196.716 36.2183 195.257 37.5461 193.614 38.2692L191.593 36.6288C192.895 36.2118 194.209 35.2367 194.984 34.2328C195.781 33.1578 196.159 31.8261 196.311 30.3202L191.369 30.0553C190.829 30.0264 190.144 30.0258 189.639 30.0348L189.765 27.6802Z" fill="#2F3E5C"/>
<path d="M215.997 26.765C216.306 27.5524 217.091 29.9267 217.309 30.7644L215.12 31.4309C214.94 30.5408 214.239 28.332 213.828 27.3783L215.997 26.765ZM222.579 28.3512C222.339 28.9178 222.216 29.2911 222.093 29.6463C221.551 31.4435 220.718 33.2828 219.43 34.8151C217.669 36.9044 215.359 38.3226 213.222 39.0272L211.413 37.0251C213.412 36.585 215.969 35.3211 217.538 33.5122C218.824 32.0338 219.786 29.6774 220.094 27.4382L222.579 28.3512ZM211.785 27.5464C212.197 28.4821 212.97 30.6938 213.289 31.7158L211.06 32.4527C210.795 31.469 209.994 29.04 209.595 28.2309L211.785 27.5464Z" fill="#2F3E5C"/>
<path d="M239.608 23.5497C239.628 24.1073 240.113 24.5581 240.688 24.5372C241.246 24.517 241.697 24.0323 241.676 23.4747C241.656 22.899 241.171 22.4483 240.613 22.4685C240.038 22.4894 239.587 22.9741 239.608 23.5497ZM238.493 23.5901C238.449 22.4029 239.386 21.3963 240.573 21.3533C241.742 21.3109 242.749 22.247 242.792 23.4342C242.834 24.6035 241.898 25.61 240.729 25.6524C240.657 25.6551 240.567 25.6583 240.494 25.6429C240.447 25.8428 240.418 26.024 240.37 26.1878C240.02 27.9656 239.348 30.7819 237.909 32.8334C236.369 35.0506 234.023 36.9189 230.859 38.0783L228.82 35.9909C232.351 35.0342 234.327 33.3955 235.718 31.5079C236.851 29.9718 237.461 27.9144 237.638 26.3589L229.274 26.6623C228.446 26.6923 227.584 26.7596 227.136 26.8119L227.044 24.2755C227.568 24.3286 228.596 24.3633 229.19 24.3418L237.518 24.0397C237.77 24.0306 238.165 23.9983 238.541 23.9306C238.519 23.8233 238.497 23.7161 238.493 23.5901Z" fill="#2F3E5C"/>
<path d="M66.6812 40.208C66.9258 41.9361 66.7507 43.5291 66.1558 44.9869C65.5802 46.419 64.6395 47.6167 63.3336 48.5799C62.0246 49.5207 60.4387 50.123 58.5759 50.3867C56.6458 50.6599 54.8958 50.5071 53.3258 49.9281C51.7558 49.3491 50.4796 48.4195 49.4971 47.1393C48.5146 45.859 47.8962 44.3212 47.6421 42.5257C47.3148 40.2141 47.789 37.8234 49.0647 35.3535L55.0417 23.7249C55.061 23.6992 55.0674 23.664 55.0611 23.6191C55.0484 23.5293 54.978 23.4363 54.8499 23.34C54.7186 23.2212 54.6033 23.1345 54.504 23.0799L54.798 22.4888L60.1896 25.1594L59.8956 25.7505C59.745 25.6573 59.5656 25.6026 59.3572 25.5863C59.1682 25.5444 59.0479 25.5843 58.9965 25.7061L54.8184 33.0624C54.9916 32.9921 55.2337 32.9234 55.5447 32.8565C55.875 32.764 56.1524 32.7018 56.3768 32.67C58.1947 32.4127 59.8421 32.5686 61.3192 33.1379C62.7962 33.7071 64.0003 34.6126 64.9316 35.8543C65.8597 37.0736 66.4429 38.5248 66.6812 40.208ZM62.1076 40.8899C61.8947 39.3862 61.2935 38.2122 60.3041 37.3679C59.3371 36.5204 58.0793 36.2063 56.5307 36.4255C55.0046 36.6416 53.861 37.2957 53.0999 38.3878C52.3357 39.4575 52.052 40.6881 52.249 42.0796C52.4524 43.5159 53.068 44.6306 54.096 45.4237C55.1208 46.1943 56.3851 46.4732 57.8887 46.2603C58.8089 46.13 59.6075 45.788 60.2846 45.2343C60.9809 44.655 61.4802 43.9776 61.7825 43.2023C62.1073 42.4237 62.2156 41.6529 62.1076 40.8899Z" fill="#2F3E5C"/>
<line x1="1" y1="-1" x2="7.75062" y2="-1" transform="matrix(0.452953 0.891534 -0.82861 0.559826 203.517 7.5)" stroke="#FAF7F8" stroke-width="2" stroke-linecap="round"/>
<line x1="1" y1="-1" x2="7.99677" y2="-1" transform="matrix(-0.275637 0.961262 -0.944404 -0.328787 220.428 5.30298)" stroke="#FAF7F8" stroke-width="2" stroke-linecap="round"/>
<line x1="1" y1="-1" x2="7.67487" y2="-1" transform="matrix(-0.51181 0.859099 -0.78383 -0.620975 234.427 10.7437)" stroke="#FAF7F8" stroke-width="2" stroke-linecap="round"/>
</svg>
