<svg width="143" height="17" viewBox="0 0 143 17" fill="none" xmlns="http://www.w3.org/2000/svg">
<path d="M2.55358 7.86036C2.30527 8.27268 2.96537 8.81576 3.45269 9.11577C5.54667 10.4049 8.93027 9.32366 12.1067 8.47863C14.4508 7.85502 20.0494 6.34715 27.3598 4.56613C35.5936 2.56014 39.888 2.29611 41.4634 2.61184C42.0883 2.73708 42.1528 3.55904 42.0752 4.13241C41.9222 5.26436 41.1277 6.16416 40.6138 7.16329C40.0745 8.21177 40.4083 9.5798 40.8344 10.6712C41.6766 12.8283 45.218 12.5307 52.169 12.7135C56.396 12.8246 59.7125 11.8814 62.9176 11.4618C65.5158 11.1216 67.6371 10.5402 69.5104 10.4962C72.72 10.4209 86.3169 6.11152 94.7606 5.78949C102.775 5.48382 97.0712 9.75101 98.565 11.4618C101.358 14.6602 112.348 13.6111 114.939 12.7135C120.834 10.6712 130.691 10.6712 135.986 8.47863C141.048 6.38301 139.693 7.16329 139.693 7.16329" stroke="#E8C7CE" stroke-width="5" stroke-linecap="round"/>
</svg>
