<svg width="267" height="63" viewBox="0 0 267 63" fill="none" xmlns="http://www.w3.org/2000/svg">
<path d="M13.5433 8.67456L80.3873 2.83789L266.718 8.67456V53.6745L182.23 62.1147L2.20703 53.6745L13.5433 8.67456Z" fill="#E8C7CE"/>
<path d="M264.011 6.32031V50.3838L180.009 58.7754L0.633789 50.3652L11.7334 6.30371L78.1914 0.5L264.011 6.32031Z" stroke="#E07A8A"/>
<path d="M46.7197 21.1467C46.709 21.232 46.693 21.3653 46.6717 21.5467C46.6503 21.7173 46.629 21.8933 46.6077 22.0747C46.597 22.2453 46.5863 22.4 46.5757 22.5387C46.5543 22.848 46.533 23.1893 46.5117 23.5627C46.501 23.9253 46.4903 24.304 46.4797 24.6987C46.469 25.0827 46.4583 25.472 46.4477 25.8667C46.4477 26.2613 46.4477 26.6453 46.4477 27.0187C46.4477 27.456 46.453 27.9413 46.4637 28.4747C46.4743 28.9973 46.485 29.52 46.4957 30.0427C46.517 30.5547 46.5277 31.024 46.5277 31.4507C46.5383 31.8773 46.5437 32.208 46.5437 32.4427C46.5437 33.104 46.469 33.616 46.3197 33.9787C46.181 34.3413 45.9783 34.592 45.7117 34.7307C45.445 34.88 45.1357 34.9547 44.7837 34.9547C44.3997 34.9547 43.989 34.8747 43.5517 34.7147C43.1143 34.5653 42.7037 34.352 42.3197 34.0747C41.9463 33.7973 41.637 33.4773 41.3917 33.1147C41.157 32.7413 41.0397 32.3413 41.0397 31.9147C41.0397 31.4027 41.2317 30.896 41.6157 30.3947C42.0103 29.8827 42.5277 29.4133 43.1677 28.9867C43.8183 28.56 44.517 28.2187 45.2637 27.9627C45.9783 27.696 46.7143 27.504 47.4717 27.3867C48.229 27.2587 48.9117 27.1947 49.5197 27.1947C50.341 27.1947 51.0823 27.3333 51.7437 27.6107C52.405 27.8773 52.933 28.272 53.3277 28.7947C53.7223 29.3173 53.9197 29.9467 53.9197 30.6827C53.9197 31.3013 53.8023 31.872 53.5677 32.3947C53.333 32.9173 52.9543 33.3707 52.4317 33.7547C51.9197 34.128 51.237 34.4213 50.3837 34.6347C50.021 34.7093 49.6583 34.7627 49.2957 34.7947C48.9437 34.8373 48.6077 34.8693 48.2877 34.8907L47.5517 32.8267C47.9143 32.8267 48.261 32.8213 48.5917 32.8107C48.933 32.7893 49.2423 32.7573 49.5197 32.7147C49.957 32.6293 50.3517 32.5013 50.7037 32.3307C51.0557 32.16 51.333 31.936 51.5357 31.6587C51.7383 31.3813 51.8397 31.0507 51.8397 30.6667C51.8397 30.304 51.7383 29.9947 51.5357 29.7387C51.3437 29.4827 51.0717 29.2853 50.7197 29.1467C50.3677 29.008 49.957 28.9387 49.4877 28.9387C48.8157 28.9387 48.133 29.008 47.4397 29.1467C46.757 29.2853 46.101 29.4773 45.4717 29.7227C45.0023 29.904 44.581 30.1173 44.2077 30.3627C43.8343 30.5973 43.541 30.8427 43.3277 31.0987C43.1143 31.3547 43.0077 31.6 43.0077 31.8347C43.0077 31.9627 43.045 32.0853 43.1197 32.2027C43.205 32.3093 43.3117 32.4053 43.4397 32.4907C43.5677 32.576 43.6957 32.6453 43.8237 32.6987C43.9623 32.7413 44.0797 32.7627 44.1757 32.7627C44.325 32.7627 44.4477 32.72 44.5437 32.6347C44.6397 32.5387 44.6877 32.3573 44.6877 32.0907C44.6877 31.8027 44.677 31.392 44.6557 30.8587C44.645 30.3147 44.629 29.712 44.6077 29.0507C44.597 28.3893 44.5917 27.7333 44.5917 27.0827C44.5917 26.6347 44.5917 26.1813 44.5917 25.7227C44.6023 25.264 44.6077 24.8267 44.6077 24.4107C44.6077 23.9947 44.6077 23.6267 44.6077 23.3067C44.6183 22.9867 44.6237 22.736 44.6237 22.5547C44.6237 22.4373 44.6183 22.288 44.6077 22.1067C44.597 21.9253 44.581 21.744 44.5597 21.5627C44.549 21.3707 44.533 21.232 44.5117 21.1467H46.7197ZM51.2797 22.8747C51.685 23.0667 52.1383 23.3013 52.6397 23.5787C53.1517 23.856 53.637 24.1333 54.0957 24.4107C54.565 24.6773 54.9383 24.9173 55.2157 25.1307L54.2557 26.7627C54.053 26.592 53.7863 26.4 53.4557 26.1867C53.1357 25.9733 52.7837 25.7547 52.3997 25.5307C52.0263 25.3067 51.6637 25.0987 51.3117 24.9067C50.9597 24.704 50.6557 24.544 50.3997 24.4267L51.2797 22.8747ZM41.4717 23.7547C41.941 23.808 42.3517 23.8453 42.7037 23.8667C43.0663 23.8773 43.3917 23.8827 43.6797 23.8827C44.0957 23.8827 44.5543 23.8667 45.0557 23.8347C45.557 23.792 46.069 23.7387 46.5917 23.6747C47.1143 23.6 47.621 23.5147 48.1117 23.4187C48.613 23.3227 49.0663 23.216 49.4717 23.0987L49.5197 25.0827C49.0717 25.1893 48.5863 25.2853 48.0637 25.3707C47.541 25.4453 47.013 25.5147 46.4797 25.5787C45.957 25.6427 45.4557 25.6907 44.9757 25.7227C44.5063 25.7547 44.0957 25.7707 43.7437 25.7707C43.2103 25.7707 42.773 25.7653 42.4317 25.7547C42.0903 25.744 41.781 25.7227 41.5037 25.6907L41.4717 23.7547ZM57.2957 22.6827H70.2717V32.2027H68.2717V24.5227H59.2157V32.2827H57.2957V22.6827ZM58.5597 26.1387H69.2157V27.9147H58.5597V26.1387ZM58.5437 29.5947H69.2477V31.4347H58.5437V29.5947ZM62.6877 20.5387H64.7037V35.5627H62.6877V20.5387ZM77.6797 21.4507C77.637 21.7813 77.5943 22.1387 77.5517 22.5227C77.5197 22.9067 77.493 23.2587 77.4717 23.5787C77.461 24.016 77.4397 24.5493 77.4077 25.1787C77.3863 25.7973 77.365 26.448 77.3437 27.1307C77.333 27.8133 77.317 28.4853 77.2957 29.1467C77.285 29.808 77.2797 30.384 77.2797 30.8747C77.2797 31.408 77.3757 31.8347 77.5677 32.1547C77.7703 32.464 78.037 32.688 78.3677 32.8267C78.6983 32.9547 79.0717 33.0187 79.4877 33.0187C80.149 33.0187 80.7517 32.9333 81.2957 32.7627C81.8397 32.5813 82.3357 32.3413 82.7837 32.0427C83.2317 31.744 83.6317 31.3973 83.9837 31.0027C84.3463 30.608 84.6717 30.192 84.9597 29.7547L86.4157 31.5147C86.1597 31.8987 85.8237 32.304 85.4077 32.7307C84.9917 33.1573 84.4957 33.5573 83.9197 33.9307C83.3543 34.304 82.6983 34.608 81.9517 34.8427C81.205 35.0773 80.3783 35.1947 79.4717 35.1947C78.597 35.1947 77.8343 35.056 77.1837 34.7787C76.5437 34.512 76.0423 34.096 75.6797 33.5307C75.3277 32.9547 75.1517 32.2133 75.1517 31.3067C75.1517 30.8693 75.157 30.3733 75.1677 29.8187C75.1783 29.2533 75.1943 28.6667 75.2157 28.0587C75.237 27.4507 75.253 26.8587 75.2637 26.2827C75.2743 25.696 75.285 25.168 75.2957 24.6987C75.3063 24.2293 75.3117 23.856 75.3117 23.5787C75.3117 23.1947 75.2957 22.8213 75.2637 22.4587C75.2317 22.0853 75.1783 21.7387 75.1037 21.4187L77.6797 21.4507ZM94.2077 21.2107H97.5997V23.0347H94.2077V21.2107ZM96.6237 21.2107H98.6397C98.7037 22.352 98.821 23.44 98.9917 24.4747C99.1623 25.5093 99.4183 26.4693 99.7597 27.3547C100.101 28.2293 100.549 29.0027 101.104 29.6747C101.658 30.3467 102.357 30.896 103.2 31.3227C103.04 31.4293 102.864 31.568 102.672 31.7387C102.49 31.9093 102.309 32.0907 102.128 32.2827C101.957 32.464 101.813 32.6347 101.696 32.7947C100.842 32.2827 100.128 31.6587 99.5517 30.9227C98.9757 30.176 98.5063 29.3387 98.1437 28.4107C97.7917 27.4827 97.5197 26.4853 97.3277 25.4187C97.1463 24.352 97.0183 23.2373 96.9437 22.0747H96.6237V21.2107ZM96.5757 24.5547L98.5437 24.8267C98.2023 26.6293 97.6637 28.2027 96.9277 29.5467C96.1917 30.8907 95.237 31.9787 94.0637 32.8107C93.9677 32.6827 93.829 32.528 93.6477 32.3467C93.477 32.1653 93.2903 31.984 93.0877 31.8027C92.8957 31.6107 92.725 31.4613 92.5757 31.3547C93.6957 30.6827 94.5757 29.7653 95.2157 28.6027C95.8663 27.44 96.3197 26.0907 96.5757 24.5547ZM92.1757 26.7787V32.6827H90.3037V28.5547H88.4477V26.7787H92.1757ZM92.1757 31.8507C92.5063 32.3733 92.9703 32.7573 93.5677 33.0027C94.165 33.248 94.8797 33.3867 95.7117 33.4187C96.181 33.44 96.7357 33.456 97.3757 33.4667C98.0263 33.4667 98.709 33.4613 99.4237 33.4507C100.138 33.44 100.837 33.4187 101.52 33.3867C102.213 33.3547 102.826 33.3173 103.36 33.2747C103.296 33.424 103.221 33.616 103.136 33.8507C103.05 34.0853 102.97 34.3253 102.896 34.5707C102.832 34.816 102.784 35.0347 102.752 35.2267C102.272 35.2587 101.722 35.28 101.104 35.2907C100.485 35.312 99.8503 35.3227 99.1997 35.3227C98.549 35.3333 97.9197 35.3333 97.3117 35.3227C96.7037 35.312 96.1597 35.296 95.6797 35.2747C94.6983 35.232 93.861 35.0773 93.1677 34.8107C92.4743 34.5547 91.861 34.1173 91.3277 33.4987C90.9757 33.7973 90.613 34.1067 90.2397 34.4267C89.877 34.7467 89.477 35.0773 89.0397 35.4187L88.0957 33.4187C88.469 33.1947 88.8583 32.9493 89.2637 32.6827C89.669 32.416 90.0583 32.1387 90.4317 31.8507H92.1757ZM88.4637 22.0747L89.8877 20.9227C90.2183 21.136 90.5543 21.3867 90.8957 21.6747C91.237 21.952 91.557 22.24 91.8557 22.5387C92.1543 22.8267 92.3943 23.0933 92.5757 23.3387L91.0557 24.6187C90.8957 24.3627 90.6717 24.0853 90.3837 23.7867C90.1063 23.488 89.797 23.1893 89.4557 22.8907C89.1143 22.5813 88.7837 22.3093 88.4637 22.0747ZM107.152 22.0267C107.376 22.048 107.61 22.0693 107.856 22.0907C108.112 22.1013 108.325 22.1067 108.496 22.1067C108.73 22.1067 108.997 22.1013 109.296 22.0907C109.605 22.08 109.92 22.0693 110.24 22.0587C110.56 22.048 110.864 22.032 111.152 22.0107C111.44 21.9893 111.674 21.9733 111.856 21.9627C112.048 21.952 112.24 21.9253 112.432 21.8827C112.634 21.84 112.805 21.792 112.944 21.7387L114.224 22.7307C114.117 22.8587 114.016 22.976 113.92 23.0827C113.824 23.1787 113.744 23.2853 113.68 23.4027C113.498 23.7013 113.29 24.112 113.056 24.6347C112.821 25.1467 112.57 25.7013 112.304 26.2987C112.048 26.896 111.797 27.4773 111.552 28.0427C111.392 28.4053 111.226 28.7893 111.056 29.1947C110.885 29.6 110.709 30.0053 110.528 30.4107C110.346 30.8053 110.17 31.1787 110 31.5307C109.829 31.872 109.664 32.1707 109.504 32.4267C109.184 32.9067 108.826 33.264 108.432 33.4987C108.037 33.7227 107.562 33.8347 107.008 33.8347C106.304 33.8347 105.717 33.6053 105.248 33.1467C104.778 32.688 104.544 32.0533 104.544 31.2427C104.544 30.6027 104.688 30.0053 104.976 29.4507C105.264 28.896 105.669 28.416 106.192 28.0107C106.725 27.5947 107.349 27.2747 108.064 27.0507C108.778 26.8267 109.562 26.7147 110.416 26.7147C111.344 26.7147 112.24 26.8213 113.104 27.0347C113.968 27.248 114.773 27.52 115.52 27.8507C116.277 28.1813 116.954 28.528 117.552 28.8907C118.16 29.2427 118.677 29.5627 119.104 29.8507L118.16 32.0747C117.68 31.6267 117.141 31.1947 116.544 30.7787C115.946 30.3627 115.306 29.984 114.624 29.6427C113.952 29.2907 113.232 29.0133 112.464 28.8107C111.706 28.608 110.917 28.5067 110.096 28.5067C109.317 28.5067 108.65 28.6293 108.096 28.8747C107.552 29.12 107.136 29.4293 106.848 29.8027C106.56 30.1653 106.416 30.544 106.416 30.9387C106.416 31.1947 106.48 31.392 106.608 31.5307C106.746 31.6693 106.906 31.7387 107.088 31.7387C107.258 31.7387 107.402 31.696 107.52 31.6107C107.637 31.5253 107.77 31.3813 107.92 31.1787C108.058 30.9867 108.192 30.7573 108.32 30.4907C108.458 30.224 108.597 29.9307 108.736 29.6107C108.885 29.2907 109.029 28.9653 109.168 28.6347C109.317 28.304 109.461 27.984 109.6 27.6747C109.792 27.248 109.989 26.8053 110.192 26.3467C110.394 25.8773 110.586 25.424 110.768 24.9867C110.96 24.5493 111.136 24.1653 111.296 23.8347C111.136 23.8453 110.938 23.856 110.704 23.8667C110.469 23.8667 110.218 23.872 109.952 23.8827C109.696 23.8933 109.44 23.9093 109.184 23.9307C108.938 23.9413 108.725 23.952 108.544 23.9627C108.384 23.9733 108.176 23.9893 107.92 24.0107C107.674 24.032 107.45 24.0587 107.248 24.0907L107.152 22.0267ZM117.696 25.8187C117.632 26.9493 117.514 27.9893 117.344 28.9387C117.184 29.8773 116.922 30.736 116.56 31.5147C116.208 32.2827 115.722 32.9813 115.104 33.6107C114.485 34.2293 113.696 34.7893 112.736 35.2907L111.04 33.8987C112.021 33.472 112.805 32.9813 113.392 32.4267C113.989 31.872 114.437 31.2907 114.736 30.6827C115.045 30.0747 115.258 29.4827 115.376 28.9067C115.493 28.32 115.568 27.792 115.6 27.3227C115.621 27.0133 115.632 26.7093 115.632 26.4107C115.632 26.1013 115.621 25.824 115.6 25.5787L117.696 25.8187ZM123.593 37.0347L127.577 21.2427H129.129L125.161 37.0347H123.593ZM140.157 21.1467C140.146 21.232 140.13 21.3653 140.109 21.5467C140.088 21.7173 140.066 21.8933 140.045 22.0747C140.034 22.2453 140.024 22.4 140.013 22.5387C139.992 22.848 139.97 23.1893 139.949 23.5627C139.938 23.9253 139.928 24.304 139.917 24.6987C139.906 25.0827 139.896 25.472 139.885 25.8667C139.885 26.2613 139.885 26.6453 139.885 27.0187C139.885 27.456 139.89 27.9413 139.901 28.4747C139.912 28.9973 139.922 29.52 139.933 30.0427C139.954 30.5547 139.965 31.024 139.965 31.4507C139.976 31.8773 139.981 32.208 139.981 32.4427C139.981 33.104 139.906 33.616 139.757 33.9787C139.618 34.3413 139.416 34.592 139.149 34.7307C138.882 34.88 138.573 34.9547 138.221 34.9547C137.837 34.9547 137.426 34.8747 136.989 34.7147C136.552 34.5653 136.141 34.352 135.757 34.0747C135.384 33.7973 135.074 33.4773 134.829 33.1147C134.594 32.7413 134.477 32.3413 134.477 31.9147C134.477 31.4027 134.669 30.896 135.053 30.3947C135.448 29.8827 135.965 29.4133 136.605 28.9867C137.256 28.56 137.954 28.2187 138.701 27.9627C139.416 27.696 140.152 27.504 140.909 27.3867C141.666 27.2587 142.349 27.1947 142.957 27.1947C143.778 27.1947 144.52 27.3333 145.181 27.6107C145.842 27.8773 146.37 28.272 146.765 28.7947C147.16 29.3173 147.357 29.9467 147.357 30.6827C147.357 31.3013 147.24 31.872 147.005 32.3947C146.77 32.9173 146.392 33.3707 145.869 33.7547C145.357 34.128 144.674 34.4213 143.821 34.6347C143.458 34.7093 143.096 34.7627 142.733 34.7947C142.381 34.8373 142.045 34.8693 141.725 34.8907L140.989 32.8267C141.352 32.8267 141.698 32.8213 142.029 32.8107C142.37 32.7893 142.68 32.7573 142.957 32.7147C143.394 32.6293 143.789 32.5013 144.141 32.3307C144.493 32.16 144.77 31.936 144.973 31.6587C145.176 31.3813 145.277 31.0507 145.277 30.6667C145.277 30.304 145.176 29.9947 144.973 29.7387C144.781 29.4827 144.509 29.2853 144.157 29.1467C143.805 29.008 143.394 28.9387 142.925 28.9387C142.253 28.9387 141.57 29.008 140.877 29.1467C140.194 29.2853 139.538 29.4773 138.909 29.7227C138.44 29.904 138.018 30.1173 137.645 30.3627C137.272 30.5973 136.978 30.8427 136.765 31.0987C136.552 31.3547 136.445 31.6 136.445 31.8347C136.445 31.9627 136.482 32.0853 136.557 32.2027C136.642 32.3093 136.749 32.4053 136.877 32.4907C137.005 32.576 137.133 32.6453 137.261 32.6987C137.4 32.7413 137.517 32.7627 137.613 32.7627C137.762 32.7627 137.885 32.72 137.981 32.6347C138.077 32.5387 138.125 32.3573 138.125 32.0907C138.125 31.8027 138.114 31.392 138.093 30.8587C138.082 30.3147 138.066 29.712 138.045 29.0507C138.034 28.3893 138.029 27.7333 138.029 27.0827C138.029 26.6347 138.029 26.1813 138.029 25.7227C138.04 25.264 138.045 24.8267 138.045 24.4107C138.045 23.9947 138.045 23.6267 138.045 23.3067C138.056 22.9867 138.061 22.736 138.061 22.5547C138.061 22.4373 138.056 22.288 138.045 22.1067C138.034 21.9253 138.018 21.744 137.997 21.5627C137.986 21.3707 137.97 21.232 137.949 21.1467H140.157ZM144.717 22.8747C145.122 23.0667 145.576 23.3013 146.077 23.5787C146.589 23.856 147.074 24.1333 147.533 24.4107C148.002 24.6773 148.376 24.9173 148.653 25.1307L147.693 26.7627C147.49 26.592 147.224 26.4 146.893 26.1867C146.573 25.9733 146.221 25.7547 145.837 25.5307C145.464 25.3067 145.101 25.0987 144.749 24.9067C144.397 24.704 144.093 24.544 143.837 24.4267L144.717 22.8747ZM134.909 23.7547C135.378 23.808 135.789 23.8453 136.141 23.8667C136.504 23.8773 136.829 23.8827 137.117 23.8827C137.533 23.8827 137.992 23.8667 138.493 23.8347C138.994 23.792 139.506 23.7387 140.029 23.6747C140.552 23.6 141.058 23.5147 141.549 23.4187C142.05 23.3227 142.504 23.216 142.909 23.0987L142.957 25.0827C142.509 25.1893 142.024 25.2853 141.501 25.3707C140.978 25.4453 140.45 25.5147 139.917 25.5787C139.394 25.6427 138.893 25.6907 138.413 25.7227C137.944 25.7547 137.533 25.7707 137.181 25.7707C136.648 25.7707 136.21 25.7653 135.869 25.7547C135.528 25.744 135.218 25.7227 134.941 25.6907L134.909 23.7547ZM154.845 28.2507H160.253V33.3067H154.845V31.7387H158.445V29.8347H154.845V28.2507ZM154.013 28.2507H155.789V34.2187H154.013V28.2507ZM151.405 23.4827H155.405V24.7787H151.405V23.4827ZM158.829 23.4827H162.861V24.7787H158.829V23.4827ZM162.061 21.1627H164.013V33.2747C164.013 33.808 163.949 34.224 163.821 34.5227C163.693 34.8213 163.464 35.0507 163.133 35.2107C162.792 35.3707 162.365 35.472 161.853 35.5147C161.341 35.5573 160.712 35.5787 159.965 35.5787C159.954 35.3867 159.912 35.1733 159.837 34.9387C159.762 34.704 159.682 34.464 159.597 34.2187C159.512 33.984 159.416 33.7813 159.309 33.6107C159.629 33.632 159.949 33.648 160.269 33.6587C160.589 33.6587 160.872 33.6587 161.117 33.6587C161.373 33.648 161.554 33.6427 161.661 33.6427C161.81 33.6427 161.912 33.616 161.965 33.5627C162.029 33.4987 162.061 33.392 162.061 33.2427V21.1627ZM151.549 21.1627H156.621V27.1467H151.549V25.6907H154.813V22.6187H151.549V21.1627ZM163.101 21.1627V22.6187H159.517V25.7227H163.101V27.1627H157.693V21.1627H163.101ZM150.461 21.1627H152.365V35.5787H150.461V21.1627ZM169.341 22.6987C169.298 22.8907 169.261 23.1093 169.229 23.3547C169.208 23.6 169.186 23.84 169.165 24.0747C169.154 24.3093 169.149 24.5013 169.149 24.6507C169.138 25.0027 169.133 25.3653 169.133 25.7387C169.144 26.112 169.154 26.496 169.165 26.8907C169.186 27.2747 169.213 27.6587 169.245 28.0427C169.32 28.8107 169.426 29.488 169.565 30.0747C169.704 30.6613 169.885 31.12 170.109 31.4507C170.333 31.7707 170.616 31.9307 170.957 31.9307C171.138 31.9307 171.314 31.8293 171.485 31.6267C171.666 31.424 171.826 31.1627 171.965 30.8427C172.114 30.512 172.242 30.1653 172.349 29.8027C172.466 29.44 172.568 29.0987 172.653 28.7787L174.253 30.7307C173.901 31.6587 173.549 32.4 173.197 32.9547C172.856 33.4987 172.498 33.8933 172.125 34.1387C171.752 34.3733 171.346 34.4907 170.909 34.4907C170.333 34.4907 169.784 34.2987 169.261 33.9147C168.749 33.5307 168.312 32.912 167.949 32.0587C167.586 31.1947 167.33 30.048 167.181 28.6187C167.128 28.128 167.085 27.6107 167.053 27.0667C167.032 26.5227 167.016 26.0053 167.005 25.5147C167.005 25.024 167.005 24.6187 167.005 24.2987C167.005 24.0747 166.994 23.808 166.973 23.4987C166.952 23.1893 166.92 22.912 166.877 22.6667L169.341 22.6987ZM177.341 23.0667C177.64 23.4293 177.928 23.872 178.205 24.3947C178.482 24.9173 178.738 25.4773 178.973 26.0747C179.208 26.672 179.416 27.2853 179.597 27.9147C179.778 28.5333 179.922 29.1413 180.029 29.7387C180.146 30.3253 180.221 30.864 180.253 31.3547L178.141 32.1707C178.088 31.52 177.992 30.8107 177.853 30.0427C177.714 29.2747 177.528 28.5013 177.293 27.7227C177.058 26.944 176.776 26.208 176.445 25.5147C176.125 24.8213 175.746 24.224 175.309 23.7227L177.341 23.0667ZM185.197 25.7067H193.213V27.4027H185.197V25.7067ZM184.989 33.3067H193.261V35.0027H184.989V33.3067ZM184.141 29.0027H194.349V35.5947H192.365V30.6827H186.029V35.5947H184.141V29.0027ZM189.133 22.4427C188.696 23.072 188.141 23.712 187.469 24.3627C186.808 25.0133 186.066 25.6373 185.245 26.2347C184.434 26.832 183.592 27.3707 182.717 27.8507C182.632 27.7013 182.52 27.5307 182.381 27.3387C182.253 27.1467 182.109 26.96 181.949 26.7787C181.8 26.5867 181.65 26.4267 181.501 26.2987C182.429 25.84 183.314 25.2907 184.157 24.6507C185.01 24.0107 185.773 23.3333 186.445 22.6187C187.117 21.904 187.65 21.2213 188.045 20.5707H190.045C190.472 21.1787 190.952 21.76 191.485 22.3147C192.018 22.8693 192.578 23.3867 193.165 23.8667C193.762 24.3467 194.381 24.7733 195.021 25.1467C195.661 25.52 196.296 25.8347 196.925 26.0907C196.69 26.336 196.466 26.6133 196.253 26.9227C196.04 27.2213 195.848 27.52 195.677 27.8187C195.058 27.4987 194.434 27.1307 193.805 26.7147C193.176 26.288 192.568 25.84 191.981 25.3707C191.405 24.8907 190.872 24.4053 190.381 23.9147C189.89 23.4133 189.474 22.9227 189.133 22.4427ZM205.357 32.6347C206.061 32.528 206.706 32.3733 207.293 32.1707C207.88 31.968 208.386 31.7067 208.813 31.3867C209.25 31.0667 209.586 30.6773 209.821 30.2187C210.056 29.7493 210.173 29.2 210.173 28.5707C210.173 28.2613 210.114 27.9627 209.997 27.6747C209.88 27.3867 209.704 27.1307 209.469 26.9067C209.245 26.672 208.973 26.4907 208.653 26.3627C208.333 26.2347 207.97 26.1707 207.565 26.1707C206.552 26.1707 205.608 26.4373 204.733 26.9707C203.858 27.4933 203.032 28.1707 202.253 29.0027V26.7307C203.213 25.8347 204.178 25.2053 205.149 24.8427C206.13 24.48 207.048 24.2987 207.901 24.2987C208.722 24.2987 209.464 24.48 210.125 24.8427C210.797 25.2053 211.33 25.712 211.725 26.3627C212.12 27.0133 212.317 27.7653 212.317 28.6187C212.317 29.4293 212.189 30.16 211.933 30.8107C211.677 31.4613 211.298 32.032 210.797 32.5227C210.296 33.0133 209.672 33.4293 208.925 33.7707C208.178 34.1013 207.309 34.368 206.317 34.5707L205.357 32.6347ZM201.725 25.6907C201.554 25.7013 201.336 25.728 201.069 25.7707C200.802 25.8027 200.514 25.84 200.205 25.8827C199.906 25.9147 199.602 25.952 199.293 25.9947C198.984 26.0373 198.696 26.0747 198.429 26.1067L198.221 24.0587C198.456 24.0693 198.674 24.0747 198.877 24.0747C199.09 24.064 199.336 24.0533 199.613 24.0427C199.869 24.0213 200.173 23.9947 200.525 23.9627C200.888 23.92 201.25 23.872 201.613 23.8187C201.986 23.7653 202.333 23.7067 202.653 23.6427C202.973 23.5787 203.224 23.5147 203.405 23.4507L204.045 24.2667C203.949 24.3947 203.837 24.5547 203.709 24.7467C203.592 24.9387 203.469 25.136 203.341 25.3387C203.213 25.5307 203.101 25.7013 203.005 25.8507L202.061 28.8587C201.89 29.104 201.677 29.4133 201.421 29.7867C201.176 30.16 200.914 30.5547 200.637 30.9707C200.36 31.3867 200.088 31.7867 199.821 32.1707C199.554 32.5547 199.314 32.8907 199.101 33.1787L197.837 31.4347C198.04 31.1787 198.274 30.8853 198.541 30.5547C198.808 30.2133 199.08 29.856 199.357 29.4827C199.645 29.0987 199.928 28.72 200.205 28.3467C200.482 27.9627 200.738 27.6053 200.973 27.2747C201.218 26.9333 201.421 26.64 201.581 26.3947L201.613 25.9787L201.725 25.6907ZM201.533 22.6027C201.533 22.368 201.533 22.1333 201.533 21.8987C201.533 21.6533 201.512 21.408 201.469 21.1627L203.805 21.2427C203.752 21.488 203.688 21.8453 203.613 22.3147C203.538 22.7733 203.464 23.3013 203.389 23.8987C203.325 24.496 203.261 25.1253 203.197 25.7867C203.144 26.4373 203.096 27.088 203.053 27.7387C203.021 28.3893 203.005 28.9973 203.005 29.5627C203.005 30 203.005 30.4427 203.005 30.8907C203.016 31.3387 203.026 31.7973 203.037 32.2667C203.048 32.736 203.069 33.2213 203.101 33.7227C203.112 33.8613 203.128 34.0533 203.149 34.2987C203.17 34.5547 203.192 34.7733 203.213 34.9547H201.005C201.026 34.7733 201.037 34.56 201.037 34.3147C201.048 34.08 201.053 33.8987 201.053 33.7707C201.064 33.248 201.074 32.7627 201.085 32.3147C201.096 31.8667 201.101 31.392 201.101 30.8907C201.112 30.3893 201.128 29.808 201.149 29.1467C201.16 28.9013 201.176 28.592 201.197 28.2187C201.218 27.8347 201.24 27.4187 201.261 26.9707C201.293 26.512 201.325 26.048 201.357 25.5787C201.389 25.1093 201.416 24.672 201.437 24.2667C201.469 23.8507 201.49 23.4987 201.501 23.2107C201.522 22.912 201.533 22.7093 201.533 22.6027ZM225.421 21.5787C225.41 21.664 225.4 21.792 225.389 21.9627C225.378 22.1227 225.368 22.2933 225.357 22.4747C225.346 22.656 225.336 22.8213 225.325 22.9707C225.325 23.3227 225.32 23.664 225.309 23.9947C225.309 24.3253 225.304 24.64 225.293 24.9387C225.293 25.2267 225.288 25.5093 225.277 25.7867C225.266 26.256 225.25 26.7467 225.229 27.2587C225.208 27.7707 225.181 28.2453 225.149 28.6827C225.117 29.12 225.074 29.4773 225.021 29.7547C224.936 30.1707 224.786 30.4533 224.573 30.6027C224.36 30.7413 224.045 30.8107 223.629 30.8107C223.448 30.8107 223.197 30.8 222.877 30.7787C222.568 30.7467 222.258 30.7093 221.949 30.6667C221.65 30.624 221.405 30.592 221.213 30.5707L221.261 28.7947C221.506 28.848 221.773 28.896 222.061 28.9387C222.36 28.9813 222.584 29.0027 222.733 29.0027C222.893 29.0027 223.01 28.9813 223.085 28.9387C223.17 28.8853 223.218 28.784 223.229 28.6347C223.261 28.432 223.282 28.176 223.293 27.8667C223.314 27.5573 223.33 27.2213 223.341 26.8587C223.362 26.4853 223.378 26.1227 223.389 25.7707C223.389 25.4827 223.389 25.1947 223.389 24.9067C223.389 24.608 223.389 24.304 223.389 23.9947C223.389 23.6747 223.389 23.36 223.389 23.0507C223.389 22.912 223.378 22.752 223.357 22.5707C223.346 22.3787 223.336 22.192 223.325 22.0107C223.314 21.8293 223.298 21.6853 223.277 21.5787H225.421ZM219.133 22.0587C219.09 22.3253 219.064 22.5867 219.053 22.8427C219.042 23.088 219.037 23.3813 219.037 23.7227C219.037 24.0107 219.032 24.3947 219.021 24.8747C219.021 25.3547 219.016 25.8773 219.005 26.4427C219.005 26.9973 219 27.5573 218.989 28.1227C218.989 28.6773 218.989 29.184 218.989 29.6427C218.989 30.1013 218.994 30.464 219.005 30.7307C219.016 31.1253 219.042 31.4507 219.085 31.7067C219.138 31.952 219.245 32.144 219.405 32.2827C219.565 32.4213 219.816 32.5173 220.157 32.5707C220.509 32.624 220.984 32.6507 221.581 32.6507C222.104 32.6507 222.658 32.6347 223.245 32.6027C223.832 32.56 224.397 32.5067 224.941 32.4427C225.485 32.3787 225.96 32.3147 226.365 32.2507L226.285 34.4267C225.933 34.4693 225.496 34.5067 224.973 34.5387C224.45 34.5813 223.906 34.6133 223.341 34.6347C222.776 34.6667 222.237 34.6827 221.725 34.6827C220.69 34.6827 219.864 34.624 219.245 34.5067C218.626 34.3893 218.157 34.192 217.837 33.9147C217.517 33.6373 217.304 33.264 217.197 32.7947C217.09 32.3253 217.026 31.744 217.005 31.0507C217.005 30.816 217 30.5013 216.989 30.1067C216.989 29.712 216.989 29.2747 216.989 28.7947C216.989 28.304 216.989 27.8027 216.989 27.2907C216.989 26.7787 216.989 26.2933 216.989 25.8347C217 25.3653 217.005 24.9547 217.005 24.6027C217.005 24.2507 217.005 23.9947 217.005 23.8347C217.005 23.504 216.994 23.1947 216.973 22.9067C216.952 22.6187 216.92 22.336 216.877 22.0587H219.133ZM213.773 25.6747C214.008 25.6747 214.301 25.664 214.653 25.6427C215.005 25.6213 215.384 25.5947 215.789 25.5627C216.109 25.5307 216.584 25.488 217.213 25.4347C217.842 25.3707 218.557 25.3013 219.357 25.2267C220.157 25.152 220.989 25.0773 221.853 25.0027C222.728 24.9173 223.565 24.8427 224.365 24.7787C225.165 24.7147 225.874 24.6613 226.493 24.6187C226.717 24.5973 226.968 24.5813 227.245 24.5707C227.533 24.5493 227.794 24.528 228.029 24.5067V26.4747C227.944 26.464 227.805 26.4587 227.613 26.4587C227.421 26.4587 227.218 26.464 227.005 26.4747C226.802 26.4747 226.632 26.48 226.493 26.4907C226.077 26.5013 225.57 26.528 224.973 26.5707C224.376 26.6027 223.736 26.6507 223.053 26.7147C222.37 26.768 221.672 26.832 220.957 26.9067C220.253 26.9707 219.576 27.04 218.925 27.1147C218.274 27.1893 217.688 27.2533 217.165 27.3067C216.642 27.36 216.226 27.4027 215.917 27.4347C215.746 27.456 215.538 27.488 215.293 27.5307C215.048 27.5627 214.802 27.6 214.557 27.6427C214.322 27.6747 214.136 27.7013 213.997 27.7227L213.773 25.6747Z" fill="#E07A8A"/>
</svg>
