<svg width="267" height="63" viewBox="0 0 267 63" fill="none" xmlns="http://www.w3.org/2000/svg">
<path d="M13.5433 8.67456L80.3873 2.83789L266.718 8.67456V53.6745L182.23 62.1147L2.20703 53.6745L13.5433 8.67456Z" fill="#3A4A6B"/>
<path d="M264.011 6.32031V50.3838L180.009 58.7754L0.633789 50.3652L11.7334 6.30371L78.1914 0.5L264.011 6.32031Z" stroke="#B0A8A8"/>
<path d="M61.4224 20.5384H63.3744V33.7384C63.3744 34.2078 63.3104 34.5598 63.1824 34.7944C63.0544 35.0291 62.8357 35.2158 62.5264 35.3544C62.2171 35.4718 61.8331 35.5464 61.3744 35.5784C60.9264 35.6104 60.3611 35.6264 59.6784 35.6264C59.6357 35.4024 59.5504 35.1411 59.4224 34.8424C59.2944 34.5544 59.1664 34.3091 59.0384 34.1064C59.3051 34.1171 59.5717 34.1278 59.8384 34.1384C60.1051 34.1384 60.3451 34.1384 60.5584 34.1384C60.7824 34.1384 60.9371 34.1384 61.0224 34.1384C61.1717 34.1278 61.2731 34.0958 61.3264 34.0424C61.3904 33.9891 61.4224 33.8878 61.4224 33.7384V20.5384ZM55.4384 21.5944H69.5184V23.0984H55.4384V21.5944ZM58.9104 24.9704V25.7224H65.9664V24.9704H58.9104ZM57.0704 23.7544H67.9344V26.9384H57.0704V23.7544ZM56.6864 27.6584H68.2064V33.9144H66.2544V28.9544H56.6864V27.6584ZM55.0704 29.6424H69.8864V31.0984H55.0704V29.6424ZM56.5584 31.8344H67.3104V33.2264H56.5584V31.8344ZM71.3584 30.3304H85.6304V31.9144H71.3584V30.3304ZM71.4064 23.1624H85.5824V24.7304H71.4064V23.1624ZM72.0624 26.0264H84.9584V27.5304H72.0624V26.0264ZM72.8464 28.2344H84.2224V29.6264H72.8464V28.2344ZM77.4864 26.7784H79.3904V35.5784H77.4864V26.7784ZM76.0944 20.5224H77.8864V23.9144H76.0944V20.5224ZM79.0704 20.5224H80.8784V23.8024H79.0704V20.5224ZM77.1344 31.0344L78.6544 31.7224C78.1531 32.2771 77.5451 32.7944 76.8304 33.2744C76.1264 33.7438 75.3691 34.1544 74.5584 34.5064C73.7477 34.8691 72.9317 35.1624 72.1104 35.3864C72.0251 35.2264 71.9077 35.0451 71.7584 34.8424C71.6197 34.6504 71.4704 34.4584 71.3104 34.2664C71.1611 34.0744 71.0171 33.9144 70.8784 33.7864C71.6784 33.6158 72.4731 33.3971 73.2624 33.1304C74.0624 32.8638 74.7984 32.5491 75.4704 32.1864C76.1424 31.8238 76.6971 31.4398 77.1344 31.0344ZM79.7744 30.9864C80.1051 31.3064 80.4997 31.6104 80.9584 31.8984C81.4171 32.1758 81.9184 32.4318 82.4624 32.6664C83.0171 32.8904 83.5984 33.0878 84.2064 33.2584C84.8251 33.4291 85.4491 33.5624 86.0784 33.6584C85.9291 33.8078 85.7691 33.9784 85.5984 34.1704C85.4384 34.3731 85.2837 34.5811 85.1344 34.7944C84.9957 35.0184 84.8784 35.2211 84.7824 35.4024C84.1424 35.2424 83.5131 35.0344 82.8944 34.7784C82.2864 34.5331 81.7051 34.2504 81.1504 33.9304C80.5957 33.6104 80.0731 33.2531 79.5824 32.8584C79.0917 32.4638 78.6597 32.0424 78.2864 31.5944L79.7744 30.9864ZM82.7504 20.6664L84.7504 21.1464C84.5051 21.5838 84.2544 22.0104 83.9984 22.4264C83.7424 22.8318 83.5077 23.1784 83.2944 23.4664L81.7264 22.9864C81.8544 22.7731 81.9824 22.5331 82.1104 22.2664C82.2384 21.9891 82.3557 21.7118 82.4624 21.4344C82.5797 21.1464 82.6757 20.8904 82.7504 20.6664ZM80.6384 24.0904L82.6704 24.5704C82.4464 24.9438 82.2331 25.3064 82.0304 25.6584C81.8277 25.9998 81.6464 26.2931 81.4864 26.5384L79.8544 26.0904C79.9931 25.7918 80.1371 25.4611 80.2864 25.0984C80.4357 24.7251 80.5531 24.3891 80.6384 24.0904ZM72.5424 21.1784L74.1904 20.6184C74.4251 20.9491 74.6597 21.3331 74.8944 21.7704C75.1291 22.1971 75.2997 22.5651 75.4064 22.8744L73.6784 23.5144C73.5931 23.1944 73.4384 22.8158 73.2144 22.3784C72.9904 21.9411 72.7664 21.5411 72.5424 21.1784ZM74.5744 24.7624L76.4464 24.4584C76.5851 24.6824 76.7184 24.9384 76.8464 25.2264C76.9851 25.5038 77.0864 25.7491 77.1504 25.9624L75.1984 26.2984C75.1451 26.0958 75.0597 25.8451 74.9424 25.5464C74.8251 25.2478 74.7024 24.9864 74.5744 24.7624ZM87.2624 25.4024H101.662V27.0824H87.2624V25.4024ZM88.6384 22.2664H97.7904V23.9304H88.6384V22.2664ZM91.4704 30.9704H98.6064V32.4264H91.4704V30.9704ZM91.4704 33.4984H98.6064V35.1144H91.4704V33.4984ZM92.4144 20.5384H94.3184V26.3464H92.4144V20.5384ZM99.4544 21.0024L101.102 21.8664C100.068 23.3171 98.8517 24.6398 97.4544 25.8344C96.0571 27.0291 94.5477 28.0851 92.9264 29.0024C91.3157 29.9198 89.6464 30.6984 87.9184 31.3384C87.8437 31.1998 87.7371 31.0344 87.5984 30.8424C87.4597 30.6398 87.3104 30.4371 87.1504 30.2344C87.0011 30.0318 86.8677 29.8718 86.7504 29.7544C88.4891 29.1998 90.1477 28.4958 91.7264 27.6424C93.3157 26.7891 94.7664 25.8024 96.0784 24.6824C97.4011 23.5624 98.5264 22.3358 99.4544 21.0024ZM90.3824 28.3624H99.8224V35.5144H97.8224V29.9464H92.3024V35.5784H90.3824V28.3624ZM109.534 21.9624H117.246V23.7064H109.534V21.9624ZM108.59 25.0664H117.95V26.8584H108.59V25.0664ZM108.926 28.2984H117.806V30.0584H108.926V28.2984ZM112.398 20.5224H114.302V26.0584H112.398V20.5224ZM114.286 26.6504H116.19V33.4344C116.19 33.9144 116.132 34.2931 116.014 34.5704C115.908 34.8478 115.694 35.0664 115.374 35.2264C115.044 35.3651 114.649 35.4504 114.19 35.4824C113.732 35.5251 113.204 35.5464 112.606 35.5464C112.564 35.2691 112.489 34.9491 112.382 34.5864C112.276 34.2238 112.153 33.9091 112.014 33.6424C112.409 33.6531 112.798 33.6638 113.182 33.6744C113.566 33.6744 113.822 33.6744 113.95 33.6744C114.078 33.6638 114.164 33.6424 114.206 33.6104C114.26 33.5784 114.286 33.5091 114.286 33.4024V26.6504ZM109.486 30.9224L110.91 30.0424C111.156 30.2771 111.401 30.5384 111.646 30.8264C111.892 31.1144 112.121 31.4024 112.334 31.6904C112.558 31.9678 112.729 32.2238 112.846 32.4584L111.326 33.4504C111.22 33.2158 111.065 32.9544 110.862 32.6664C110.66 32.3678 110.436 32.0691 110.19 31.7704C109.956 31.4611 109.721 31.1784 109.486 30.9224ZM102.894 29.0664C103.417 28.9491 104.009 28.8051 104.67 28.6344C105.342 28.4638 106.046 28.2771 106.782 28.0744C107.529 27.8611 108.27 27.6478 109.006 27.4344L109.246 29.1304C108.244 29.4398 107.22 29.7544 106.174 30.0744C105.14 30.3838 104.201 30.6611 103.358 30.9064L102.894 29.0664ZM105.758 20.5544H107.518V35.5784H105.758V20.5544ZM103.646 21.3704L105.262 21.6424C105.188 22.3464 105.097 23.0558 104.99 23.7704C104.884 24.4744 104.756 25.1411 104.606 25.7704C104.457 26.3998 104.286 26.9544 104.094 27.4344C103.998 27.3491 103.865 27.2531 103.694 27.1464C103.524 27.0398 103.353 26.9331 103.182 26.8264C103.012 26.7091 102.862 26.6184 102.734 26.5544C102.905 26.1278 103.049 25.6318 103.166 25.0664C103.294 24.5011 103.396 23.9038 103.47 23.2744C103.556 22.6344 103.614 21.9998 103.646 21.3704ZM104.094 23.5624H108.862V25.3864H103.726L104.094 23.5624ZM126.11 20.9544H128.046V32.4904C128.046 32.8104 128.062 33.0504 128.094 33.2104C128.137 33.3704 128.222 33.4771 128.35 33.5304C128.489 33.5731 128.686 33.5944 128.942 33.5944C129.038 33.5944 129.188 33.5944 129.39 33.5944C129.604 33.5944 129.838 33.5944 130.094 33.5944C130.35 33.5944 130.585 33.5944 130.798 33.5944C131.022 33.5944 131.182 33.5944 131.278 33.5944C131.545 33.5944 131.742 33.5198 131.87 33.3704C132.009 33.2104 132.105 32.9278 132.158 32.5224C132.222 32.1064 132.276 31.5251 132.318 30.7784C132.553 30.9491 132.841 31.1144 133.182 31.2744C133.524 31.4238 133.828 31.5304 134.094 31.5944C134.02 32.5118 133.897 33.2478 133.726 33.8024C133.556 34.3571 133.294 34.7571 132.942 35.0024C132.59 35.2584 132.094 35.3864 131.454 35.3864C131.369 35.3864 131.23 35.3864 131.038 35.3864C130.857 35.3864 130.649 35.3864 130.414 35.3864C130.19 35.3864 129.961 35.3864 129.726 35.3864C129.502 35.3864 129.3 35.3864 129.118 35.3864C128.937 35.3864 128.798 35.3864 128.702 35.3864C128.03 35.3864 127.508 35.3011 127.134 35.1304C126.761 34.9598 126.494 34.6611 126.334 34.2344C126.185 33.8078 126.11 33.2211 126.11 32.4744V20.9544ZM132.094 23.6424L133.502 25.3224C132.916 25.7491 132.276 26.1651 131.582 26.5704C130.889 26.9651 130.18 27.3491 129.454 27.7224C128.74 28.0958 128.036 28.4424 127.342 28.7624C127.278 28.5384 127.166 28.2824 127.006 27.9944C126.846 27.6958 126.702 27.4451 126.574 27.2424C127.236 26.9224 127.897 26.5598 128.558 26.1544C129.23 25.7491 129.87 25.3278 130.478 24.8904C131.086 24.4531 131.625 24.0371 132.094 23.6424ZM123.006 20.7624L124.91 21.3864C124.505 22.3358 124.025 23.2851 123.47 24.2344C122.916 25.1731 122.318 26.0584 121.678 26.8904C121.049 27.7118 120.398 28.4318 119.726 29.0504C119.662 28.8904 119.561 28.6824 119.422 28.4264C119.294 28.1704 119.156 27.9144 119.006 27.6584C118.857 27.3918 118.724 27.1784 118.606 27.0184C119.193 26.5278 119.758 25.9518 120.302 25.2904C120.846 24.6184 121.353 23.8984 121.822 23.1304C122.292 22.3518 122.686 21.5624 123.006 20.7624ZM121.31 25.2744L123.214 23.3704L123.23 23.4024V35.5464H121.31V25.2744ZM135.902 21.1144H143.214V22.7944H135.902V21.1144ZM135.358 24.4744H143.566V26.1704H135.358V24.4744ZM135.198 33.2744H149.678V35.0504H135.198V33.2744ZM136.83 30.2504H148.078V31.9944H136.83V30.2504ZM140.286 21.7704H142.078V29.2584H140.286V21.7704ZM141.47 28.9864H143.438V34.5864H141.47V28.9864ZM144.238 21.4664H145.998V26.9064H144.238V21.4664ZM147.166 20.7304H148.99V27.5944C148.99 28.0318 148.937 28.3731 148.83 28.6184C148.734 28.8638 148.537 29.0611 148.238 29.2104C147.94 29.3384 147.582 29.4184 147.166 29.4504C146.75 29.4824 146.26 29.4984 145.694 29.4984C145.662 29.2531 145.588 28.9704 145.47 28.6504C145.364 28.3198 145.246 28.0424 145.118 27.8184C145.481 27.8291 145.833 27.8344 146.174 27.8344C146.526 27.8344 146.756 27.8291 146.862 27.8184C146.99 27.8184 147.07 27.8024 147.102 27.7704C147.145 27.7384 147.166 27.6691 147.166 27.5624V20.7304ZM137.166 21.7864H138.926V24.6504C138.926 25.2264 138.857 25.8291 138.718 26.4584C138.59 27.0878 138.334 27.6851 137.95 28.2504C137.566 28.8051 137.006 29.2851 136.27 29.6904C136.185 29.5624 136.062 29.4131 135.902 29.2424C135.753 29.0718 135.593 28.9011 135.422 28.7304C135.262 28.5598 135.129 28.4318 135.022 28.3464C135.673 28.0051 136.148 27.6318 136.446 27.2264C136.745 26.8104 136.937 26.3784 137.022 25.9304C137.118 25.4718 137.166 25.0291 137.166 24.6024V21.7864ZM154.974 32.0104C154.974 31.7864 154.974 31.4664 154.974 31.0504C154.974 30.6238 154.974 30.1438 154.974 29.6104C154.974 29.0664 154.974 28.5011 154.974 27.9144C154.974 27.3171 154.974 26.7358 154.974 26.1704C154.974 25.5944 154.974 25.0611 154.974 24.5704C154.974 24.0798 154.974 23.6691 154.974 23.3384C154.974 23.1678 154.969 22.9704 154.958 22.7464C154.958 22.5224 154.948 22.2984 154.926 22.0744C154.905 21.8504 154.878 21.6584 154.846 21.4984H157.23C157.198 21.7438 157.166 22.0478 157.134 22.4104C157.102 22.7624 157.086 23.0718 157.086 23.3384C157.086 23.6584 157.086 24.0424 157.086 24.4904C157.086 24.9278 157.086 25.4024 157.086 25.9144C157.086 26.4158 157.086 26.9278 157.086 27.4504C157.086 27.9731 157.086 28.4851 157.086 28.9864C157.086 29.4878 157.086 29.9464 157.086 30.3624C157.086 30.7784 157.086 31.1411 157.086 31.4504C157.086 31.7704 157.134 32.0318 157.23 32.2344C157.326 32.4371 157.518 32.5811 157.806 32.6664C158.105 32.7518 158.548 32.7944 159.134 32.7944C159.7 32.7944 160.265 32.7731 160.83 32.7304C161.406 32.6771 161.977 32.6131 162.542 32.5384C163.108 32.4531 163.652 32.3571 164.174 32.2504L164.11 34.4264C163.673 34.4904 163.177 34.5491 162.622 34.6024C162.068 34.6558 161.492 34.6984 160.894 34.7304C160.308 34.7624 159.726 34.7784 159.15 34.7784C158.244 34.7784 157.513 34.7198 156.958 34.6024C156.404 34.4958 155.982 34.3304 155.694 34.1064C155.417 33.8824 155.225 33.5944 155.118 33.2424C155.022 32.8904 154.974 32.4798 154.974 32.0104ZM165.054 24.9704C164.98 25.0878 164.889 25.2318 164.782 25.4024C164.686 25.5624 164.601 25.7118 164.526 25.8504C164.356 26.1811 164.137 26.5544 163.87 26.9704C163.614 27.3864 163.337 27.8131 163.038 28.2504C162.74 28.6878 162.43 29.1038 162.11 29.4984C161.801 29.8931 161.502 30.2291 161.214 30.5064L159.454 29.4664C159.806 29.1571 160.148 28.8051 160.478 28.4104C160.82 28.0051 161.124 27.6104 161.39 27.2264C161.657 26.8318 161.865 26.5011 162.014 26.2344C161.865 26.2558 161.604 26.3091 161.23 26.3944C160.868 26.4691 160.42 26.5598 159.886 26.6664C159.353 26.7731 158.772 26.8904 158.142 27.0184C157.513 27.1358 156.878 27.2584 156.238 27.3864C155.598 27.5144 154.98 27.6424 154.382 27.7704C153.785 27.8878 153.246 27.9998 152.766 28.1064C152.286 28.2024 151.902 28.2824 151.614 28.3464L151.23 26.2504C151.54 26.2078 151.945 26.1491 152.446 26.0744C152.948 25.9891 153.508 25.8931 154.126 25.7864C154.745 25.6691 155.39 25.5464 156.062 25.4184C156.734 25.2904 157.401 25.1624 158.062 25.0344C158.724 24.9064 159.342 24.7891 159.918 24.6824C160.494 24.5651 160.996 24.4638 161.422 24.3784C161.849 24.2824 162.169 24.2078 162.382 24.1544C162.606 24.1011 162.814 24.0478 163.006 23.9944C163.198 23.9304 163.369 23.8611 163.518 23.7864L165.054 24.9704ZM171.022 21.6104C171.438 21.6638 171.94 21.7438 172.526 21.8504C173.124 21.9464 173.753 22.0584 174.414 22.1864C175.086 22.3144 175.753 22.4584 176.414 22.6184C177.086 22.7678 177.705 22.9171 178.27 23.0664C178.846 23.2158 179.337 23.3598 179.742 23.4984L178.926 25.4984C178.553 25.3598 178.089 25.2158 177.534 25.0664C176.98 24.9064 176.377 24.7464 175.726 24.5864C175.076 24.4264 174.42 24.2771 173.758 24.1384C173.097 23.9998 172.462 23.8718 171.854 23.7544C171.257 23.6371 170.729 23.5518 170.27 23.4984L171.022 21.6104ZM170.286 25.9144C170.862 26.0104 171.524 26.1331 172.27 26.2824C173.017 26.4318 173.785 26.5971 174.574 26.7784C175.364 26.9491 176.116 27.1304 176.83 27.3224C177.545 27.5038 178.153 27.6851 178.654 27.8664L177.87 29.8664C177.412 29.6851 176.83 29.4984 176.126 29.3064C175.433 29.1144 174.692 28.9224 173.902 28.7304C173.124 28.5384 172.35 28.3678 171.582 28.2184C170.814 28.0584 170.137 27.9358 169.55 27.8504L170.286 25.9144ZM169.47 30.4904C170.014 30.5758 170.633 30.6878 171.326 30.8264C172.02 30.9651 172.74 31.1198 173.486 31.2904C174.244 31.4611 174.985 31.6371 175.71 31.8184C176.436 31.9998 177.108 32.1811 177.726 32.3624C178.356 32.5438 178.889 32.7198 179.326 32.8904L178.446 34.8904C178.02 34.7091 177.492 34.5224 176.862 34.3304C176.233 34.1491 175.55 33.9678 174.814 33.7864C174.078 33.5944 173.337 33.4184 172.59 33.2584C171.844 33.0878 171.129 32.9384 170.446 32.8104C169.774 32.6824 169.182 32.5811 168.67 32.5064L169.47 30.4904ZM189.79 23.3544C189.79 23.0878 189.774 22.7731 189.742 22.4104C189.71 22.0371 189.657 21.7278 189.582 21.4824H192.126C192.084 21.7278 192.052 22.0424 192.03 22.4264C192.009 22.7998 191.998 23.1144 191.998 23.3704C191.998 23.6691 191.998 23.9944 191.998 24.3464C191.998 24.6984 191.998 25.0611 191.998 25.4344C191.998 25.8078 191.998 26.1704 191.998 26.5224C191.998 27.3971 191.929 28.2291 191.79 29.0184C191.652 29.7971 191.412 30.5438 191.07 31.2584C190.74 31.9731 190.276 32.6451 189.678 33.2744C189.092 33.9038 188.34 34.4904 187.422 35.0344L185.438 33.5624C186.281 33.1784 186.98 32.7358 187.534 32.2344C188.1 31.7331 188.548 31.1838 188.878 30.5864C189.209 29.9891 189.444 29.3491 189.582 28.6664C189.721 27.9838 189.79 27.2691 189.79 26.5224C189.79 26.1704 189.79 25.8078 189.79 25.4344C189.79 25.0504 189.79 24.6824 189.79 24.3304C189.79 23.9678 189.79 23.6424 189.79 23.3544ZM183.854 25.0024C184.1 25.0238 184.377 25.0504 184.686 25.0824C184.996 25.1038 185.31 25.1144 185.63 25.1144C185.769 25.1144 186.03 25.1144 186.414 25.1144C186.809 25.1144 187.284 25.1144 187.838 25.1144C188.393 25.1144 188.99 25.1144 189.63 25.1144C190.27 25.1144 190.91 25.1144 191.55 25.1144C192.201 25.1144 192.804 25.1144 193.358 25.1144C193.913 25.1144 194.388 25.1144 194.782 25.1144C195.177 25.1144 195.449 25.1144 195.598 25.1144C195.972 25.1144 196.313 25.1038 196.622 25.0824C196.942 25.0611 197.182 25.0398 197.342 25.0184V27.1944C197.182 27.1838 196.926 27.1731 196.574 27.1624C196.233 27.1411 195.902 27.1304 195.582 27.1304C195.433 27.1304 195.161 27.1304 194.766 27.1304C194.382 27.1304 193.908 27.1304 193.342 27.1304C192.788 27.1304 192.19 27.1304 191.55 27.1304C190.921 27.1304 190.286 27.1304 189.646 27.1304C189.006 27.1304 188.409 27.1304 187.854 27.1304C187.3 27.1304 186.83 27.1304 186.446 27.1304C186.062 27.1304 185.812 27.1304 185.694 27.1304C185.342 27.1304 185.012 27.1411 184.702 27.1624C184.393 27.1731 184.11 27.1891 183.854 27.2104V25.0024ZM199.934 26.7304C200.126 26.7411 200.372 26.7571 200.67 26.7784C200.969 26.7891 201.278 26.7998 201.598 26.8104C201.929 26.8211 202.233 26.8264 202.51 26.8264C202.777 26.8264 203.108 26.8264 203.502 26.8264C203.897 26.8264 204.324 26.8264 204.782 26.8264C205.252 26.8264 205.732 26.8264 206.222 26.8264C206.724 26.8264 207.22 26.8264 207.71 26.8264C208.201 26.8264 208.665 26.8264 209.102 26.8264C209.54 26.8264 209.929 26.8264 210.27 26.8264C210.622 26.8264 210.9 26.8264 211.102 26.8264C211.476 26.8264 211.828 26.8158 212.158 26.7944C212.489 26.7624 212.761 26.7411 212.974 26.7304V29.2424C212.793 29.2318 212.521 29.2158 212.158 29.1944C211.796 29.1731 211.444 29.1624 211.102 29.1624C210.9 29.1624 210.622 29.1624 210.27 29.1624C209.918 29.1624 209.524 29.1624 209.086 29.1624C208.649 29.1624 208.185 29.1624 207.694 29.1624C207.214 29.1624 206.724 29.1624 206.222 29.1624C205.721 29.1624 205.236 29.1624 204.766 29.1624C204.308 29.1624 203.881 29.1624 203.486 29.1624C203.102 29.1624 202.777 29.1624 202.51 29.1624C202.052 29.1624 201.582 29.1731 201.102 29.1944C200.622 29.2051 200.233 29.2211 199.934 29.2424V26.7304Z" fill="white"/>
</svg>
