<svg width="50" height="50" viewBox="0 0 50 50" fill="none" xmlns="http://www.w3.org/2000/svg">
<path fill-rule="evenodd" clip-rule="evenodd" d="M17.8224 27.7776C17.0948 29.4428 16.6844 31.2781 16.6672 33.2073L16.6667 33.3333V50H0V38.8889C0 32.8113 4.87331 27.8773 10.9273 27.7793L11.1111 27.7777L17.8224 27.7776ZM38.8888 22.2223C45.0255 22.2223 50 27.1969 50 33.3333V50H19.4444V33.3333C19.4444 27.1969 24.419 22.2223 30.5556 22.2223H38.8888ZM13.8889 8.33333C18.4835 8.33333 22.2223 12.0723 22.2223 16.6667C22.2223 21.2611 18.4835 25 13.8889 25C9.29453 25 5.5556 21.2611 5.5556 16.6667C5.5556 12.0723 9.29453 8.33333 13.8889 8.33333ZM34.7223 0C40.0835 0 44.4445 4.36107 44.4445 9.72227C44.4445 15.0835 40.0835 19.4444 34.7224 19.4444C29.3612 19.4444 25.0001 15.0833 25.0001 9.72227C25 4.36107 29.3611 0 34.7223 0Z" fill="url(#paint0_linear_156_367)"/>
<defs>
<linearGradient id="paint0_linear_156_367" x1="0" y1="25" x2="50" y2="25" gradientUnits="userSpaceOnUse">
<stop stop-color="#085078"/>
<stop offset="1" stop-color="#85D8CE"/>
</linearGradient>
</defs>
</svg>
