<svg width="267" height="63" viewBox="0 0 267 63" fill="none" xmlns="http://www.w3.org/2000/svg">
<path d="M13.5433 8.67456L80.3873 2.83789L266.718 8.67456V53.6745L182.23 62.1147L2.20703 53.6745L13.5433 8.67456Z" fill="#E8C7CE"/>
<path d="M264.011 6.32031V50.3838L180.009 58.7754L0.633789 50.3652L11.7334 6.30371L78.1914 0.5L264.011 6.32031Z" stroke="#E07A8A"/>
<path d="M77.0987 21.6587H85.8827V23.0187H77.0987V21.6587ZM76.6827 25.6747H86.1707V27.1307H76.6827V25.6747ZM76.6667 31.7227H86.2027V33.2267H76.6667V31.7227ZM78.2987 29.7707H84.6987V30.9707H78.2987V29.7707ZM77.4027 23.6587H85.5307V24.9867H77.4027V23.6587ZM78.7787 20.5387H80.4907V26.3147H78.7787V20.5387ZM82.3467 20.5387H84.0747V26.3147H82.3467V20.5387ZM80.5867 26.4107H82.1547V32.6027H80.5867V26.4107ZM83.6587 27.7067H85.3867V33.8827C85.3867 34.288 85.3387 34.5973 85.2427 34.8107C85.1467 35.024 84.9653 35.1947 84.6987 35.3227C84.432 35.44 84.096 35.5093 83.6907 35.5307C83.296 35.5627 82.8267 35.5787 82.2827 35.5787C82.2613 35.3547 82.208 35.104 82.1227 34.8267C82.0373 34.5493 81.9467 34.304 81.8507 34.0907C82.16 34.1013 82.464 34.112 82.7627 34.1227C83.072 34.1227 83.28 34.1227 83.3867 34.1227C83.4933 34.112 83.5627 34.0907 83.5947 34.0587C83.6373 34.016 83.6587 33.952 83.6587 33.8667V27.7067ZM77.4507 27.7067H84.2827V29.0347H79.0667V35.5787H77.4507V27.7067ZM71.8027 25.5627H76.2027V27.0187H71.8027V25.5627ZM71.8827 21.0507H76.1387V22.4907H71.8827V21.0507ZM71.8027 27.8027H76.2027V29.2587H71.8027V27.8027ZM71.0987 23.2587H76.6827V24.7787H71.0987V23.2587ZM72.6987 30.0747H76.2667V34.9387H72.6987V33.4187H74.6667V31.5947H72.6987V30.0747ZM71.7547 30.0747H73.3387V35.5627H71.7547V30.0747ZM88.4747 22.9227H92.8747V27.7707H88.4747V26.1547H91.1627V24.5227H88.4747V22.9227ZM88.5387 28.8107H93.0347V33.9947H88.5387V32.3787H91.3227V30.4267H88.5387V28.8107ZM87.7707 22.9227H89.4827V35.0027H87.7707V22.9227ZM93.3067 21.2907H102.011V23.0187H93.3067V21.2907ZM89.5787 20.5227L91.6907 20.7307C91.5093 21.2533 91.312 21.7707 91.0987 22.2827C90.896 22.7947 90.704 23.232 90.5227 23.5947L89.0027 23.3227C89.0773 23.0453 89.152 22.7467 89.2267 22.4267C89.312 22.096 89.3813 21.7653 89.4347 21.4347C89.4987 21.104 89.5467 20.8 89.5787 20.5227ZM96.7627 22.1067H98.5547V35.5627H96.7627V22.1067ZM93.8507 24.4587H100.747V26.1707H95.5947V33.0827H93.8507V24.4587ZM99.8187 24.4587H101.595V31.3867C101.595 31.76 101.557 32.0693 101.483 32.3147C101.408 32.56 101.253 32.752 101.019 32.8907C100.805 33.04 100.549 33.1307 100.251 33.1627C99.952 33.1947 99.6 33.2107 99.1947 33.2107C99.1733 32.9653 99.1147 32.688 99.0187 32.3787C98.9227 32.0587 98.8213 31.7867 98.7147 31.5627C98.9067 31.5733 99.088 31.5787 99.2587 31.5787C99.44 31.5787 99.5627 31.5733 99.6267 31.5627C99.7013 31.5627 99.7493 31.552 99.7707 31.5307C99.8027 31.4987 99.8187 31.44 99.8187 31.3547V24.4587ZM115.483 22.4107C115.483 22.6667 115.573 22.8853 115.755 23.0667C115.936 23.2373 116.149 23.3227 116.395 23.3227C116.651 23.3227 116.869 23.2373 117.051 23.0667C117.232 22.8853 117.323 22.6667 117.323 22.4107C117.323 22.1547 117.232 21.936 117.051 21.7547C116.869 21.5733 116.651 21.4827 116.395 21.4827C116.149 21.4827 115.936 21.5733 115.755 21.7547C115.573 21.936 115.483 22.1547 115.483 22.4107ZM114.491 22.4107C114.491 22.0587 114.576 21.7387 114.747 21.4507C114.928 21.152 115.163 20.9173 115.451 20.7467C115.739 20.576 116.053 20.4907 116.395 20.4907C116.747 20.4907 117.067 20.576 117.355 20.7467C117.653 20.9173 117.888 21.152 118.059 21.4507C118.229 21.7387 118.315 22.0587 118.315 22.4107C118.315 22.752 118.229 23.0667 118.059 23.3547C117.888 23.6427 117.653 23.8773 117.355 24.0587C117.067 24.2293 116.747 24.3147 116.395 24.3147C116.053 24.3147 115.739 24.2293 115.451 24.0587C115.163 23.8773 114.928 23.6427 114.747 23.3547C114.576 23.0667 114.491 22.752 114.491 22.4107ZM116.427 23.6747C116.352 23.824 116.288 24.0053 116.235 24.2187C116.181 24.4213 116.128 24.608 116.075 24.7787C115.989 25.1733 115.877 25.616 115.739 26.1067C115.6 26.5867 115.435 27.088 115.243 27.6107C115.051 28.1333 114.821 28.6507 114.555 29.1627C114.299 29.6747 114.005 30.1547 113.675 30.6027C113.195 31.2427 112.635 31.84 111.995 32.3947C111.355 32.9493 110.64 33.4507 109.851 33.8987C109.061 34.3467 108.192 34.7253 107.243 35.0347L105.499 33.1147C106.565 32.8587 107.483 32.544 108.251 32.1707C109.019 31.7973 109.685 31.3707 110.251 30.8907C110.827 30.4107 111.333 29.8987 111.771 29.3547C112.123 28.9067 112.421 28.4213 112.667 27.8987C112.923 27.376 113.131 26.8533 113.291 26.3307C113.461 25.7973 113.579 25.3013 113.643 24.8427C113.483 24.8427 113.216 24.8427 112.843 24.8427C112.48 24.8427 112.048 24.8427 111.547 24.8427C111.056 24.8427 110.539 24.8427 109.995 24.8427C109.461 24.8427 108.944 24.8427 108.443 24.8427C107.941 24.8427 107.488 24.8427 107.083 24.8427C106.688 24.8427 106.395 24.8427 106.203 24.8427C105.829 24.8427 105.467 24.848 105.115 24.8587C104.773 24.8693 104.501 24.8853 104.299 24.9067V22.6507C104.459 22.672 104.651 22.6933 104.875 22.7147C105.109 22.736 105.344 22.752 105.579 22.7627C105.824 22.7733 106.032 22.7787 106.203 22.7787C106.373 22.7787 106.613 22.7787 106.923 22.7787C107.243 22.7787 107.611 22.7787 108.027 22.7787C108.443 22.7787 108.875 22.7787 109.323 22.7787C109.781 22.7787 110.235 22.7787 110.683 22.7787C111.141 22.7787 111.568 22.7787 111.963 22.7787C112.357 22.7787 112.699 22.7787 112.987 22.7787C113.275 22.7787 113.483 22.7787 113.611 22.7787C113.771 22.7787 113.963 22.7733 114.187 22.7627C114.421 22.752 114.645 22.7147 114.859 22.6507L116.427 23.6747ZM120.635 22.7947C120.965 22.8053 121.275 22.816 121.563 22.8267C121.861 22.8267 122.117 22.8267 122.331 22.8267C122.501 22.8267 122.763 22.8267 123.115 22.8267C123.477 22.8267 123.899 22.8267 124.379 22.8267C124.859 22.8267 125.371 22.8267 125.915 22.8267C126.459 22.8267 127.003 22.8267 127.547 22.8267C128.101 22.8267 128.619 22.8267 129.099 22.8267C129.579 22.8267 129.995 22.8267 130.347 22.8267C130.709 22.8267 130.971 22.8267 131.131 22.8267C131.333 22.8267 131.573 22.8267 131.851 22.8267C132.139 22.816 132.427 22.8053 132.715 22.7947C132.704 23.04 132.693 23.3013 132.683 23.5787C132.683 23.8453 132.683 24.1013 132.683 24.3467C132.683 24.496 132.683 24.7307 132.683 25.0507C132.683 25.36 132.683 25.7333 132.683 26.1707C132.683 26.5973 132.683 27.056 132.683 27.5467C132.683 28.0267 132.683 28.512 132.683 29.0027C132.683 29.4933 132.683 29.9573 132.683 30.3947C132.683 30.8213 132.683 31.1947 132.683 31.5147C132.683 31.824 132.683 32.048 132.683 32.1867C132.683 32.3467 132.683 32.5493 132.683 32.7947C132.693 33.0293 132.699 33.2693 132.699 33.5147C132.699 33.7493 132.699 33.9573 132.699 34.1387C132.709 34.3093 132.715 34.4 132.715 34.4107H130.507C130.507 34.3893 130.507 34.2613 130.507 34.0267C130.517 33.7813 130.523 33.4933 130.523 33.1627C130.533 32.832 130.539 32.5227 130.539 32.2347C130.539 32.096 130.539 31.8613 130.539 31.5307C130.539 31.2 130.539 30.8107 130.539 30.3627C130.539 29.9147 130.539 29.44 130.539 28.9387C130.539 28.4373 130.539 27.9467 130.539 27.4667C130.539 26.9867 130.539 26.5493 130.539 26.1547C130.539 25.76 130.539 25.4453 130.539 25.2107C130.539 24.976 130.539 24.8587 130.539 24.8587H122.811C122.811 24.8587 122.811 24.976 122.811 25.2107C122.811 25.4453 122.811 25.76 122.811 26.1547C122.811 26.5387 122.811 26.976 122.811 27.4667C122.811 27.9467 122.811 28.4373 122.811 28.9387C122.811 29.4293 122.811 29.904 122.811 30.3627C122.811 30.8107 122.811 31.2 122.811 31.5307C122.811 31.8613 122.811 32.096 122.811 32.2347C122.811 32.4267 122.811 32.6453 122.811 32.8907C122.811 33.1253 122.811 33.3547 122.811 33.5787C122.821 33.8027 122.827 33.9893 122.827 34.1387C122.827 34.2987 122.827 34.3893 122.827 34.4107H120.619C120.619 34.3893 120.619 34.2987 120.619 34.1387C120.629 33.9787 120.635 33.7813 120.635 33.5467C120.645 33.312 120.651 33.072 120.651 32.8267C120.661 32.5813 120.667 32.3627 120.667 32.1707C120.667 32.032 120.667 31.808 120.667 31.4987C120.667 31.1787 120.667 30.8 120.667 30.3627C120.667 29.9253 120.667 29.4667 120.667 28.9867C120.667 28.496 120.667 28.0053 120.667 27.5147C120.667 27.024 120.667 26.5653 120.667 26.1387C120.667 25.7013 120.667 25.328 120.667 25.0187C120.667 24.7093 120.667 24.4853 120.667 24.3467C120.667 24.1227 120.667 23.8667 120.667 23.5787C120.667 23.28 120.656 23.0187 120.635 22.7947ZM131.339 31.4987V33.5467H121.723V31.4987H131.339ZM148.843 23.4827C148.768 23.632 148.699 23.8133 148.635 24.0267C148.581 24.2293 148.533 24.4213 148.491 24.6027C148.405 24.9867 148.293 25.424 148.155 25.9147C148.016 26.4053 147.851 26.912 147.659 27.4347C147.467 27.9573 147.237 28.4747 146.971 28.9867C146.715 29.4987 146.421 29.9787 146.091 30.4267C145.611 31.056 145.051 31.6533 144.411 32.2187C143.771 32.7733 143.056 33.2747 142.267 33.7227C141.477 34.16 140.608 34.5333 139.659 34.8427L137.915 32.9387C138.971 32.6827 139.883 32.368 140.651 31.9947C141.429 31.6107 142.107 31.184 142.683 30.7147C143.259 30.2347 143.76 29.7227 144.187 29.1787C144.539 28.7307 144.837 28.2453 145.083 27.7227C145.339 27.2 145.547 26.672 145.707 26.1387C145.877 25.6053 145.995 25.1147 146.059 24.6667C145.899 24.6667 145.632 24.6667 145.259 24.6667C144.896 24.6667 144.464 24.6667 143.963 24.6667C143.472 24.6667 142.955 24.6667 142.411 24.6667C141.877 24.6667 141.36 24.6667 140.859 24.6667C140.357 24.6667 139.904 24.6667 139.499 24.6667C139.104 24.6667 138.805 24.6667 138.603 24.6667C138.24 24.6667 137.883 24.672 137.531 24.6827C137.189 24.6933 136.912 24.7093 136.699 24.7307V22.4747C136.869 22.4853 137.067 22.5013 137.291 22.5227C137.515 22.544 137.749 22.5653 137.995 22.5867C138.24 22.5973 138.448 22.6027 138.619 22.6027C138.779 22.6027 139.019 22.6027 139.339 22.6027C139.659 22.6027 140.027 22.6027 140.443 22.6027C140.859 22.6027 141.291 22.6027 141.739 22.6027C142.197 22.6027 142.651 22.6027 143.099 22.6027C143.547 22.6027 143.968 22.6027 144.363 22.6027C144.757 22.6027 145.099 22.6027 145.387 22.6027C145.685 22.6027 145.893 22.6027 146.011 22.6027C146.171 22.6027 146.368 22.5973 146.603 22.5867C146.837 22.5653 147.056 22.528 147.259 22.4747L148.843 23.4827ZM152.018 29.5787C152.711 29.4293 153.415 29.2267 154.13 28.9707C154.855 28.704 155.533 28.4213 156.162 28.1227C156.791 27.8133 157.319 27.536 157.746 27.2907C158.269 26.9707 158.781 26.6133 159.282 26.2187C159.794 25.8133 160.263 25.408 160.69 25.0027C161.117 24.5973 161.463 24.2187 161.73 23.8667L163.314 25.4187C163.005 25.7707 162.594 26.16 162.082 26.5867C161.581 27.0027 161.037 27.424 160.45 27.8507C159.863 28.2667 159.277 28.6453 158.69 28.9867C158.327 29.2107 157.911 29.44 157.442 29.6747C156.973 29.8987 156.477 30.1227 155.954 30.3467C155.442 30.56 154.925 30.7627 154.402 30.9547C153.89 31.1467 153.41 31.3173 152.962 31.4667L152.018 29.5787ZM157.554 28.5387L159.73 28.1227V33.8187C159.73 34 159.73 34.208 159.73 34.4427C159.741 34.6773 159.757 34.8907 159.778 35.0827C159.799 35.2853 159.821 35.44 159.842 35.5467H157.474C157.495 35.44 157.506 35.2853 157.506 35.0827C157.517 34.8907 157.527 34.6773 157.538 34.4427C157.549 34.208 157.554 34 157.554 33.8187V28.5387ZM167.778 26.7307C167.97 26.7413 168.215 26.7573 168.514 26.7787C168.813 26.7893 169.122 26.8 169.442 26.8107C169.773 26.8213 170.077 26.8267 170.354 26.8267C170.621 26.8267 170.951 26.8267 171.346 26.8267C171.741 26.8267 172.167 26.8267 172.626 26.8267C173.095 26.8267 173.575 26.8267 174.066 26.8267C174.567 26.8267 175.063 26.8267 175.554 26.8267C176.045 26.8267 176.509 26.8267 176.946 26.8267C177.383 26.8267 177.773 26.8267 178.114 26.8267C178.466 26.8267 178.743 26.8267 178.946 26.8267C179.319 26.8267 179.671 26.816 180.002 26.7947C180.333 26.7627 180.605 26.7413 180.818 26.7307V29.2427C180.637 29.232 180.365 29.216 180.002 29.1947C179.639 29.1733 179.287 29.1627 178.946 29.1627C178.743 29.1627 178.466 29.1627 178.114 29.1627C177.762 29.1627 177.367 29.1627 176.93 29.1627C176.493 29.1627 176.029 29.1627 175.538 29.1627C175.058 29.1627 174.567 29.1627 174.066 29.1627C173.565 29.1627 173.079 29.1627 172.61 29.1627C172.151 29.1627 171.725 29.1627 171.33 29.1627C170.946 29.1627 170.621 29.1627 170.354 29.1627C169.895 29.1627 169.426 29.1733 168.946 29.1947C168.466 29.2053 168.077 29.2213 167.778 29.2427V26.7307ZM190.354 33.7867C190.386 33.6267 190.413 33.4453 190.434 33.2427C190.466 33.0293 190.482 32.816 190.482 32.6027C190.482 32.4853 190.482 32.2507 190.482 31.8987C190.482 31.5467 190.482 31.12 190.482 30.6187C190.482 30.1173 190.482 29.5787 190.482 29.0027C190.482 28.416 190.482 27.824 190.482 27.2267C190.482 26.6293 190.482 26.0693 190.482 25.5467C190.482 25.0133 190.482 24.5493 190.482 24.1547C190.482 23.7493 190.482 23.456 190.482 23.2747C190.482 22.912 190.461 22.5973 190.418 22.3307C190.386 22.064 190.365 21.92 190.354 21.8987H192.738C192.727 21.92 192.706 22.0693 192.674 22.3467C192.642 22.6133 192.626 22.928 192.626 23.2907C192.626 23.472 192.626 23.744 192.626 24.1067C192.626 24.4587 192.626 24.8693 192.626 25.3387C192.626 25.7973 192.626 26.288 192.626 26.8107C192.626 27.3333 192.626 27.8507 192.626 28.3627C192.626 28.864 192.626 29.344 192.626 29.8027C192.626 30.2507 192.626 30.6347 192.626 30.9547C192.626 31.2747 192.626 31.5093 192.626 31.6587C193.063 31.4667 193.517 31.2053 193.986 30.8747C194.455 30.544 194.914 30.16 195.362 29.7227C195.821 29.2747 196.226 28.7947 196.578 28.2827L197.81 30.0427C197.373 30.6187 196.839 31.184 196.21 31.7387C195.591 32.2933 194.951 32.8 194.29 33.2587C193.629 33.7173 192.994 34.1013 192.386 34.4107C192.215 34.5067 192.077 34.592 191.97 34.6667C191.863 34.752 191.773 34.8267 191.698 34.8907L190.354 33.7867ZM182.946 33.5467C183.65 33.056 184.226 32.464 184.674 31.7707C185.122 31.0773 185.453 30.3947 185.666 29.7227C185.783 29.3707 185.869 28.9387 185.922 28.4267C185.986 27.904 186.034 27.3493 186.066 26.7627C186.098 26.1653 186.114 25.5787 186.114 25.0027C186.125 24.416 186.13 23.8773 186.13 23.3867C186.13 23.0667 186.114 22.7947 186.082 22.5707C186.061 22.336 186.029 22.1173 185.986 21.9147H188.338C188.327 21.936 188.311 22.0267 188.29 22.1867C188.279 22.336 188.263 22.5173 188.242 22.7307C188.231 22.9333 188.226 23.1467 188.226 23.3707C188.226 23.84 188.221 24.3893 188.21 25.0187C188.199 25.6373 188.178 26.272 188.146 26.9227C188.114 27.5733 188.066 28.192 188.002 28.7787C187.938 29.3547 187.853 29.8453 187.746 30.2507C187.501 31.1573 187.133 32 186.642 32.7787C186.162 33.5467 185.581 34.2347 184.898 34.8427L182.946 33.5467Z" fill="#E07A8A"/>
</svg>
