<svg width="150" height="150" viewBox="0 0 150 150" fill="none" xmlns="http://www.w3.org/2000/svg">
<mask id="mask0_86_1349" style="mask-type:alpha" maskUnits="userSpaceOnUse" x="0" y="0" width="150" height="150">
<circle cx="75" cy="75" r="74.5" fill="white" stroke="black"/>
</mask>
<g mask="url(#mask0_86_1349)">
<path d="M105.415 43.0429C104.604 35.4656 100.131 32.4856 98.3948 32.3822C98.3948 32.3822 99.8982 30.3395 88.6917 24.8201C75.8677 18.504 60.6702 30.4972 53.6079 32.4686C46.5455 34.4401 44.3457 31.638 44.3457 31.638L47.5738 36.4726C47.5738 36.4726 44.6215 66.424 48.672 72.1333L103.053 67.1987C103.053 67.1987 106.225 50.6202 105.415 43.0429Z" fill="#584132"/>
<path d="M92.7523 109.008L85.741 107.303L85.5792 98.6204L64.3852 98.2305V107.369L57.4097 110.046C57.4097 110.046 61.8432 118.876 75.4062 118.355C88.9691 117.836 92.2262 115.507 92.7506 109.006L92.7523 109.008Z" fill="#FBD8AC"/>
<path d="M102.15 63.563C106.616 64.9242 105.203 71.303 105.203 71.303C105.203 71.303 104.609 77.3377 100.61 77.397L99.411 81.3094C98.2123 89.4665 89.2192 102.4 75.8282 102.699C62.439 102.997 53.4458 86.9797 52.1467 83.4979L51.3022 80.4432C47.3028 80.3839 46.3647 75.3018 46.3647 75.3018C45.4776 74.4746 46.7359 68.4806 48.4725 68.0212L50.4952 70.4775C50.4952 70.4775 49.5656 63.1629 51.3022 56.6231C53.0389 50.0832 56.6161 43.8654 56.6161 43.8654L56.8017 43.7383C56.8017 43.7383 63.3413 46.6794 70.4037 45.9521C77.4661 45.2249 92.6091 43.8654 92.6091 43.8654C92.6091 43.8654 96.8417 47.4218 98.6448 54.577C101.09 64.2868 100.572 65.1073 100.572 65.1073L102.152 63.5596L102.15 63.563Z" fill="#FBD8AC"/>
<path d="M20 187C20 178.19 20.1975 170.194 20.1975 160.678C20.1975 144.684 22.6101 134.611 31.2423 127.039L59.3148 106.437C59.3148 106.437 63.8011 116.823 77.2857 115.499C90.7703 114.175 91.7136 106.437 91.7136 106.437L113.509 124.98C113.509 124.98 130.002 139.251 130.002 156.014V186.152L20 187Z" fill="#584132"/>
<circle cx="75" cy="75" r="74" stroke="#E07A8A" stroke-width="2"/>
</g>
</svg>
