<svg width="150" height="150" viewBox="0 0 150 150" fill="none" xmlns="http://www.w3.org/2000/svg">
<mask id="mask0_86_1321" style="mask-type:alpha" maskUnits="userSpaceOnUse" x="0" y="0" width="150" height="150">
<circle cx="75" cy="75" r="74.5" fill="white" stroke="black"/>
</mask>
<g mask="url(#mask0_86_1321)">
<path d="M63.4561 102.977L63.7153 136.99L86.6614 137.577L86.888 103.845L63.4561 102.977Z" fill="#FBD8AC"/>
<path d="M106.079 63.4442C106.666 47.9989 100.488 24.9068 73.8668 24.0234C47.2432 23.1401 45.0367 65.3549 45.0367 65.3549L42.8398 65.5431C42.8398 65.5431 43.535 75.8227 47.9268 75.8879L47.9787 75.7977C47.9787 75.7977 48.3128 81.9716 49.7396 85.8123C51.1664 89.6529 61.0389 107.314 75.741 106.986C90.4412 106.658 100.316 92.3952 101.633 83.3984C102.95 74.4016 102.845 75.6517 102.845 75.6517L102.91 75.7478C107.302 75.6825 108.398 66.2056 108.398 66.2056L106.08 63.4442H106.079Z" fill="#FBD8AC"/>
<path d="M61.5553 109.131L58.2447 118.189L29.332 132.609C25.8236 135.678 23.8668 138.091 21.5489 142.143C16.9363 150.209 9.94238 203.164 9.94238 203.164L61.5553 209L70.8709 129.573L61.5553 109.131Z" fill="#F49C00"/>
<path d="M128.451 142.143C126.133 138.091 124.178 135.678 120.667 132.609L92.692 119.633L88.9723 111.529L79.6567 129.571L88.9723 208.998L140.057 203.162C140.057 203.162 133.063 150.207 128.449 142.141L128.451 142.143Z" fill="#F49C00"/>
<path d="M61.555 109.131L64.9521 126.051L56.1973 134.919L58.1579 118.663L61.555 109.131Z" fill="#FACD89"/>
<path d="M88.9718 111.53L85.5747 126.05L90.7788 134.918L92.6915 119.634L88.9718 111.53Z" fill="#FACD89"/>
<path d="M65.1871 78.04C60.6627 78.04 56.9814 74.3587 56.9814 69.8344C56.9814 65.7402 59.9733 63.3936 65.1871 63.3936C70.4008 63.3936 73.3927 65.7421 73.3927 69.8344C73.3927 74.3587 69.7114 78.04 65.1871 78.04ZM65.1871 64.9279C62.1452 64.9279 58.5177 65.7786 58.5177 69.8324C58.5177 73.5099 61.5096 76.5018 65.1871 76.5018C68.8645 76.5018 71.8564 73.5099 71.8564 69.8324C71.8564 65.7786 68.2289 64.9279 65.1871 64.9279Z" fill="#584132"/>
<path d="M86.0547 78.04C81.5304 78.04 77.8491 74.3587 77.8491 69.8344C77.8491 65.7402 80.841 63.3936 86.0547 63.3936C91.2684 63.3936 94.2603 65.7421 94.2603 69.8344C94.2603 74.3587 90.579 78.04 86.0547 78.04ZM86.0547 64.9279C83.011 64.9279 79.3854 65.7786 79.3854 69.8324C79.3854 73.5099 82.3773 76.5018 86.0547 76.5018C89.7322 76.5018 92.7241 73.5099 92.7241 69.8324C92.7241 65.7786 89.0965 64.9279 86.0547 64.9279Z" fill="#584132"/>
<path d="M79.4336 67.6017H72.6241C72.1997 67.6017 71.856 67.258 71.856 66.8336C71.856 66.4092 72.1997 66.0654 72.6241 66.0654H79.4336C79.858 66.0654 80.2017 66.4092 80.2017 66.8336C80.2017 67.258 79.858 67.6017 79.4336 67.6017Z" fill="#584132"/>
<path d="M58.1584 66.9738H47.9249C47.5005 66.9738 47.1567 66.63 47.1567 66.2056C47.1567 65.7812 47.5005 65.4375 47.9249 65.4375H58.1584C58.5828 65.4375 58.9265 65.7812 58.9265 66.2056C58.9265 66.63 58.5828 66.9738 58.1584 66.9738Z" fill="#584132"/>
<path d="M102.906 67.6017H92.6783C92.2539 67.6017 91.9102 67.258 91.9102 66.8336C91.9102 66.4092 92.2539 66.0654 92.6783 66.0654H102.906C103.33 66.0654 103.674 66.4092 103.674 66.8336C103.674 67.258 103.33 67.6017 102.906 67.6017Z" fill="#584132"/>
<path d="M79.6567 129.572L85.5752 126.05L88.9723 111.53L79.6567 129.572Z" fill="#E9B77D"/>
<path d="M79.7159 130.418C79.7159 130.418 78.5156 132.859 75.4124 132.845C72.9313 132.836 70.7613 130.516 70.7613 130.516L61.5571 209H88.9738L79.7178 130.418H79.7159Z" fill="white"/>
<path d="M61.5552 109.13C61.5552 109.13 64.0094 125.514 64.451 125.66L64.9523 126.05L70.8707 129.57L61.5552 109.128V109.13Z" fill="#E9B77D"/>
<path d="M79.1611 33.2912C79.1611 33.2912 85.191 23.5839 90.6332 27.1135C96.0755 30.6431 99.3112 41.8233 99.3112 41.8233C99.3112 41.8233 93.869 35.2039 88.8684 32.8515C85.4138 31.225 79.1611 33.2932 79.1611 33.2932V33.2912Z" fill="#3F291B"/>
<path d="M89.2678 18.1682C78.1721 15.8312 74.7385 18.0703 74.7385 18.0703L73.786 18.2412C72.6645 17.2234 37.4628 19.643 40.6486 56.3484C40.7946 60.1449 42.8378 65.543 42.8378 65.543L47.6828 66.9717C47.6828 66.9717 60.7911 58.6662 72.6242 43.8643C77.0026 37.9515 78.6176 35.1037 78.6176 35.1037L80.5072 32.2558C80.5072 32.2558 85.0161 22.1817 93.4925 31.3801C101.969 40.5786 102.904 64.1584 102.904 66.8315L108.392 65.5411C108.392 65.5411 109.5 60.7383 109.633 46.9291C109.717 38.0956 100.362 20.5014 89.2659 18.1663L89.2678 18.1682Z" fill="#584132"/>
<path d="M86.8423 111.265L88.9719 111.532L86.9076 115.58L86.8423 111.265Z" fill="#F49C00"/>
<path d="M61.5552 109.131L63.5024 108.779V113.88L61.5552 109.131Z" fill="#F49C00"/>
<circle cx="75" cy="75" r="74" stroke="#E07A8A" stroke-width="2"/>
</g>
</svg>
