<svg width="289" height="83" viewBox="0 0 289 83" fill="none" xmlns="http://www.w3.org/2000/svg">
<path d="M241.138 60.6557C242.8 62.317 243.371 60.7229 245.732 60.7633C248.086 60.8036 248.086 60.9045 250.447 61.0054C252.808 61.1063 252.808 61.0525 255.162 61.2206C257.523 61.3888 257.523 61.2341 259.877 61.4695C262.238 61.7049 262.238 61.8731 264.592 62.1825C266.953 62.4919 266.953 62.5726 269.314 62.9627C271.675 63.3461 271.675 63.3192 274.029 63.79C276.389 64.2541 276.389 64.1936 278.75 64.7451C281.111 65.2966 281.111 65.1083 283.472 65.754C285.833 66.393 287.037 68.996 288.321 67.4153C289.613 65.828 287.104 64.846 286.149 62.391C285.194 59.936 285.409 59.9023 284.454 57.4675C283.499 55.0327 283.324 55.0596 282.369 52.6382C281.414 50.2168 281.636 50.1765 280.681 47.7618C279.726 45.3472 279.631 45.3673 278.676 42.9729C277.721 40.5784 276.907 40.612 276.907 38.2377C276.907 35.8634 277.755 36.2804 278.71 34.3299C279.665 32.3793 279.679 32.3928 280.634 30.4557C281.589 28.5253 281.407 28.3975 282.362 26.4739C283.317 24.5502 283.459 24.6511 284.414 22.7476C285.05 21.4742 285.687 20.2074 286.324 18.9474C287.279 17.0574 289.552 17.5215 288.268 15.127C286.99 12.746 285.84 14.3939 283.479 13.7549C281.125 13.1159 281.125 13.1025 278.764 12.5509C276.403 11.9994 276.403 12.107 274.049 11.6362C271.688 11.1721 271.688 11.2326 269.334 10.8492C266.973 10.4658 266.973 10.3044 264.619 10.0018C262.258 9.69235 262.258 9.69908 259.897 9.46367C257.536 9.22825 257.536 9.42331 255.182 9.25516C252.821 9.08701 252.821 8.97267 250.461 8.87178C248.1 8.77088 248.1 8.57583 245.739 8.53547C243.378 8.49512 242.611 6.88759 240.943 8.5691C239.268 10.2573 240.903 11.0107 240.903 13.3782C240.903 15.7458 241.152 15.7458 241.152 18.1134C241.152 20.4809 241.004 20.4809 241.004 22.8485C241.004 25.2161 241.206 25.2161 241.206 27.5837C241.206 29.9512 240.903 29.958 240.903 32.3255C240.903 34.6931 241.152 34.6931 241.152 37.0607C241.152 39.4282 240.984 39.4282 240.984 41.8025C240.984 44.1768 241.185 44.1701 241.185 46.5377C241.185 48.9052 241.105 48.912 241.105 51.2795C241.105 53.6471 241.602 53.7211 241.132 56.0483C240.641 58.4697 239.463 58.9741 241.132 60.6422L241.138 60.6557Z" fill="#E07A8A"/>
<path d="M47.5459 81.523C45.8846 83.2045 45.1783 81.5903 42.8175 81.5499C40.4634 81.5095 40.4634 81.5028 38.1025 81.3952C35.7417 81.2943 35.7417 81.375 33.3876 81.2069C31.0267 81.0387 31.0267 80.7428 28.6726 80.5074C26.3118 80.272 26.3118 80.5074 23.9576 80.198C21.5968 79.8886 21.5968 79.8079 19.2427 79.4177C17.6688 79.1577 16.0971 78.8752 14.5277 78.5703C12.1669 78.0994 12.1669 78.0524 9.80603 77.4941C7.44519 76.9426 7.44519 76.8215 5.08434 76.1825C2.7235 75.5368 1.67423 77.3461 0.389556 74.9651C-0.901846 72.5706 1.35138 73.1289 2.30648 71.2389C3.26158 69.3488 3.2414 69.3354 4.1965 67.4319C5.1516 65.5285 5.13142 65.515 6.08652 63.5981C7.04162 61.6811 6.92728 61.6004 7.88238 59.6633C8.83748 57.7262 8.82403 57.7195 9.77913 55.7689C10.7342 53.8184 11.8306 54.3228 11.8306 51.9486C11.8306 49.5743 10.9158 49.5608 9.96073 47.1663C9.00563 44.7719 8.83075 44.8055 7.87565 42.3976C6.92055 39.9896 7.1896 39.9358 6.2345 37.5144C5.2794 35.0931 5.13142 35.1132 4.17632 32.6717C3.22122 30.2301 3.32211 30.2167 2.36702 27.7549C1.41192 25.2999 -0.780777 24.5601 0.503899 22.966C1.78185 21.3786 2.73022 23.6184 5.08434 24.2574C7.43846 24.9031 7.43846 24.8627 9.7993 25.4143C12.1601 25.9658 12.1601 25.912 14.5143 26.3828C16.8751 26.8536 16.8751 26.7259 19.2292 27.116C21.5901 27.5061 21.5901 27.8626 23.9442 28.172C26.305 28.4814 26.305 28.1921 28.6592 28.4275C31.02 28.663 31.02 28.6495 33.3741 28.8177C35.735 28.9858 35.735 28.932 38.0958 29.0396C40.4567 29.1405 40.4566 29.201 42.8175 29.2414C45.1783 29.2818 45.7366 27.8558 47.4047 29.5239C49.0794 31.192 47.6939 31.7569 47.6939 34.1245C47.6939 36.4921 47.4316 36.4988 47.4316 38.8664C47.4316 41.234 47.6468 41.234 47.6468 43.6015C47.6468 45.9691 47.5863 45.9691 47.5863 48.3434C47.5863 50.7177 47.4181 50.711 47.4181 53.0853C47.4181 55.4596 47.5795 55.4528 47.5795 57.8204C47.5795 60.188 47.4114 60.188 47.4114 62.5623C47.4114 64.9366 47.4047 64.9298 47.4047 67.2974C47.4047 69.665 47.3845 69.665 47.3845 72.0393C47.3845 74.4136 47.1962 74.4337 47.6939 76.7475C48.2252 79.2227 49.214 79.8415 47.5392 81.5365L47.5459 81.523Z" fill="#E07A8A"/>
<path d="M262.413 33.6033C263.704 33.8455 264.249 35.453 263.401 36.4888C256.527 44.9031 249.748 52.1404 242.853 60.7901C242.188 61.6241 240.721 61.1869 240.741 60.1713L241.333 31.2021C248.47 31.5855 254.886 32.1976 262.413 33.6101V33.6033Z" fill="#FAF7F8"/>
<path d="M25.3567 54.309C32.3047 64.0753 39.1182 72.1062 46.0662 81.8724C46.6783 82.7334 48.0369 82.2894 48.0168 81.2267L47.4652 51.2285C40.0531 51.6792 33.4818 52.419 25.3567 54.3023V54.309Z" fill="#FAF7F8"/>
<path d="M263.678 53.422C262.954 53.7449 259.24 52.9377 257.002 52.7965C254.764 52.6485 252.526 52.8234 250.288 52.7225C248.05 52.6216 245.813 52.5611 243.575 52.5073C241.337 52.4534 239.099 52.3526 236.861 52.3391C234.623 52.3257 232.385 52.3257 230.147 52.3526C227.909 52.3795 225.672 52.366 223.434 52.4265C221.196 52.4938 218.958 52.3593 216.72 52.4602C214.482 52.5543 212.244 52.9848 210.006 53.1126C207.768 53.2404 205.531 53.1395 203.293 53.2942C201.055 53.4489 198.817 53.5565 196.579 53.7381C194.341 53.9197 192.103 54.2426 189.865 54.4376C187.627 54.6394 185.39 54.7269 183.152 54.9421C180.914 55.164 178.676 55.4667 176.438 55.7021C174.2 55.9375 171.962 56.4353 169.724 56.6774C167.486 56.9263 165.249 56.9801 163.011 57.2357C160.773 57.4913 158.535 57.5854 156.297 57.8477C154.059 58.1101 151.821 58.3993 149.583 58.6683C147.345 58.9374 145.108 59.2199 142.87 59.4889C140.632 59.7579 138.394 60.1279 136.156 60.3969C133.918 60.6592 131.68 61.1166 129.442 61.3722C127.204 61.6345 124.967 61.5874 122.729 61.843C120.491 62.0919 118.253 62.3273 116.015 62.5694C113.777 62.8116 111.539 63.2958 109.301 63.5245C107.063 63.7532 104.826 64.0357 102.588 64.2442C100.35 64.4527 98.1118 64.5402 95.8739 64.7352C93.6361 64.9236 91.3982 65.0715 89.1603 65.2397C86.9224 65.4078 84.6845 65.6163 82.4466 65.7576C80.2087 65.8988 77.9708 65.7979 75.7329 65.9055C73.495 66.0199 71.2572 66.4302 69.0193 66.5109C66.7814 66.5916 64.5435 66.6723 62.3056 66.7194C60.0677 66.7665 57.8298 66.6656 55.5919 66.6723C53.5676 66.6791 51.5433 66.6992 49.519 66.6723C47.4947 66.6454 45.4704 66.6723 43.446 66.6118C41.4217 66.5513 39.3974 66.4436 37.3731 66.3427C35.3488 66.2486 33.3245 65.9661 31.3002 65.8316C29.2758 65.697 25.5058 65.8316 25.1158 65.502C24.6329 65.1052 25.1529 62.2668 25.1529 60.6861C25.1529 59.1055 25.2551 57.5383 25.2551 55.9577C25.2551 54.3771 25.2736 52.7965 25.2736 51.2226C25.2736 49.6487 25.2922 48.0613 25.2922 46.4874C25.2922 44.9135 25.3758 43.3329 25.3758 41.7523C25.3758 40.1717 25.0972 38.5709 25.0972 36.9903C25.0972 35.4096 25.1344 33.8357 25.1344 32.2551C25.1344 30.6745 25.4779 29.1275 25.4779 27.5469C25.4779 25.9663 25.2736 24.3722 25.2736 22.7916C25.2736 21.2109 25.0694 19.6101 25.0694 18.0362C25.0694 16.4623 24.7351 13.6172 25.1901 13.2137C25.9422 12.5478 28.5423 13.55 31.8573 13.7719C35.1724 13.9872 35.1724 14.2158 38.4781 14.3638C41.7932 14.5118 41.7932 14.2831 45.0989 14.3638C47.309 14.4176 49.5159 14.4535 51.7197 14.4714C55.0348 14.4916 55.0348 14.6329 58.3498 14.5992C61.6649 14.5656 61.6649 14.4109 64.9706 14.3235C68.2857 14.236 68.2857 14.458 71.6007 14.3235C74.9158 14.1822 74.9158 14.0275 78.2215 13.8459C81.5273 13.6643 81.5273 13.7316 84.8424 13.5096C88.1574 13.2876 88.1574 13.1464 91.4632 12.8908C94.7782 12.6285 94.7782 12.837 98.084 12.5478C101.399 12.2586 101.399 12.1375 104.705 11.8214C108.02 11.5052 108.02 11.6263 111.326 11.2833C114.641 10.9403 114.641 10.6039 117.956 10.2407C121.271 9.87754 121.271 9.99188 124.577 9.61522C127.892 9.23856 127.892 9.39999 131.207 9.0166C134.522 8.62649 134.522 8.67357 137.827 8.28346C141.142 7.89335 141.142 7.91353 144.448 7.51669C147.763 7.11985 147.763 7.01896 151.069 6.62213C154.384 6.22529 154.384 6.23874 157.699 5.85536C161.014 5.46525 161.014 5.37108 164.32 4.99442C167.635 4.61776 167.635 4.75228 170.95 4.38908C174.265 4.02587 174.265 3.80391 177.58 3.46088C180.895 3.11785 180.895 3.22547 184.21 2.90262C187.525 2.57977 187.525 2.64703 190.84 2.35108C194.155 2.06186 194.155 1.87353 197.47 1.61122C200.785 1.3489 200.785 1.29509 204.101 1.07313C207.416 0.851174 207.416 0.878078 210.721 0.689749C214.036 0.508145 214.036 0.53505 217.351 0.393803C220.666 0.252555 220.666 0.514872 223.981 0.420707C227.297 0.326542 227.297 0.131487 230.612 0.0911302C233.927 0.0507739 233.927 -0.0164866 237.242 0.00369156C240.557 0.0238697 240.557 0.306364 243.872 0.387077C247.187 0.467789 247.187 0.306364 250.502 0.454337C253.817 0.60231 253.817 0.783914 257.141 0.999147C260.456 1.21438 261.524 -0.642009 263.883 1.25474C266.214 3.12458 263.883 3.70302 263.883 6.07059C263.883 8.43816 263.976 8.44489 263.976 10.8192C263.976 13.1935 263.678 13.1598 263.678 15.5274C263.678 17.895 263.613 17.8883 263.613 20.2626C263.613 22.6369 263.669 22.6369 263.669 25.0044C263.669 27.372 263.985 27.3989 263.985 29.7732C263.985 32.1475 263.567 32.1071 263.567 34.4747C263.567 36.8423 263.595 36.8423 263.595 39.2166C263.595 41.5909 263.846 41.6111 263.846 43.9786C263.846 46.3462 263.613 46.3327 263.948 48.7205C264.282 51.1351 264.644 53.0386 263.734 53.4489L263.678 53.422Z" fill="#E8C7CE"/>
<path d="M95.3374 33.3477L95.1345 32.4688L87.4389 34.2455L87.0183 32.4234L94.7138 30.6467L94.4169 29.3606L97.0107 28.7617L97.3076 30.0479L105.196 28.2267L105.617 30.0488L97.7283 31.87L97.9312 32.7489L104.534 31.2246L104.939 32.9824L89.5267 36.5406L89.1209 34.7829L95.3374 33.3477ZM104.279 44.4015L94.9973 46.5444L95.2992 47.852L104.581 45.7091L104.279 44.4015ZM93.3207 50.7247L92.0983 45.43L106.525 42.0994L107.742 47.3727L105.106 47.9814L104.977 47.424L95.6951 49.5669L95.8287 50.1457L93.3207 50.7247ZM101.002 39.107L95.4288 40.3937C95.785 40.7631 96.1132 41.2066 96.3358 41.5842L100.752 40.5647C100.867 40.0865 100.951 39.5704 101.002 39.107ZM93.4053 38.0837L93.6527 39.1555L102.206 37.1809L101.958 36.1091L93.4053 38.0837ZM103.388 39.956L108.34 38.8128L108.785 40.7421L89.2142 45.2604L88.7688 43.3312L93.6777 42.1979C93.46 41.8417 93.1731 41.479 92.9273 41.197L93.7782 40.7748L91.5917 41.2796L90.6118 37.0352L104.159 33.9075L105.139 38.1519L103.917 38.434C103.753 38.9913 103.556 39.5108 103.388 39.956Z" fill="#2F3E5C"/>
<path d="M132.351 23.0216C132.912 23.8315 133.733 25.0613 134.208 25.888L132.693 26.7427C132.15 25.7949 131.483 24.6694 130.828 23.8332L132.351 23.0216ZM134.502 21.7518C135.149 22.5449 135.954 23.8005 136.445 24.6014L134.931 25.4561C134.396 24.5515 133.678 23.3912 133.052 22.594L134.502 21.7518ZM116.638 28.4292C117.009 28.3794 117.441 28.2954 117.847 28.1941C119.878 27.6873 123.396 26.5328 124.699 25.7416L125.986 27.9792C125.687 28.1718 125.285 28.4069 124.977 28.6684C123.722 30.0553 121.458 33.9693 122.264 38.1157C122.755 40.6424 124.589 41.3168 126.662 40.9138C131.413 39.9903 131.96 34.6172 128.778 27.1228C128.543 26.7202 128.303 26.2961 128.064 25.872L130.638 24.5872C131.599 27.2243 133.148 30.4644 137.044 32.8671L135.777 35.6906C134.703 34.8909 133.69 33.9449 132.734 32.8308C133.993 37.6959 133.207 42.6448 127.182 43.816C123.705 44.4919 120.377 43.1665 119.617 39.2577C118.937 35.7592 119.872 32.8432 121.38 29.8829C120.577 30.1288 119.245 30.5445 118.614 30.7568C118.173 30.9097 117.858 31.0159 117.378 31.1988L116.638 28.4292Z" fill="#2F3E5C"/>
<path d="M165.972 30.0565C166.296 34.6872 163.693 38.1552 158.223 39.3978L156.394 36.9013C157.222 36.7552 157.827 36.5805 158.411 36.4074C161.174 35.5526 163.227 33.3801 163.003 30.1759C162.791 27.1473 160.987 25.0019 157.989 24.7043C157.812 26.5912 157.581 28.6364 157.088 30.7439C156.082 35.2691 154.384 38.1225 151.992 38.2897C149.556 38.4601 147.35 35.9238 147.091 32.2149C146.736 27.1452 150.823 22.5149 156.507 22.1174C161.95 21.7368 165.637 25.2722 165.972 30.0565ZM149.88 31.7331C150.035 33.9497 150.988 34.9637 151.844 34.9038C152.766 34.8394 153.525 33.3969 154.217 30.3712C154.609 28.7119 154.895 26.8173 155.009 24.9789C151.44 25.9783 149.711 29.319 149.88 31.7331Z" fill="#2F3E5C"/>
<path d="M185.028 30.0132L181.097 29.5306L181.02 30.1639C180.955 30.6879 180.866 31.2312 180.75 31.8154L184.746 32.306L185.028 30.0132ZM191.625 33.1506L191.906 30.8578L187.561 30.3242L187.279 32.617L191.625 33.1506ZM194.765 29.0588L193.813 36.8105L191.214 36.4915L191.357 35.3342L180.155 33.9588C179.501 35.8512 178.455 37.6954 176.7 38.9872C176.347 38.4341 175.392 37.3637 174.889 36.9473C177.537 35.056 178.175 32.0311 178.448 29.8038L178.781 27.0962L194.765 29.0588ZM196.654 24.503L188.422 23.4923L188.258 24.8243L195.508 25.7144L195.24 27.898L178.579 25.8523L178.847 23.6687L185.638 24.5025L185.802 23.1705L177.635 22.1678L177.906 19.9623L186.072 20.9651L186.273 19.3274L188.894 19.6491L188.693 21.2868L196.925 22.2976L196.654 24.503Z" fill="#2F3E5C"/>
</svg>
