<svg width="150" height="150" viewBox="0 0 150 150" fill="none" xmlns="http://www.w3.org/2000/svg">
<mask id="mask0_86_1305" style="mask-type:alpha" maskUnits="userSpaceOnUse" x="0" y="0" width="150" height="150">
<circle cx="75" cy="75" r="74.5" fill="white" stroke="black"/>
</mask>
<g mask="url(#mask0_86_1305)">
<path d="M55.8535 115.424L57.7363 193.516L93.7665 194L97.239 114.273L55.8535 115.424Z" fill="white"/>
<path d="M103.093 40.0806C85.5562 9.10485 60.9282 25.1589 60.9282 25.1589C57.4799 27.6191 55.8531 29.29 54.1484 30.7967C54.1484 30.7967 35.5713 53.2152 40.2902 72.4505C44.8459 91.0182 58.9768 90.1644 62.5847 94.3895L95.2148 88.9804C104.232 82.6639 121.865 73.2343 103.095 40.0806H103.093Z" fill="#584132"/>
<path d="M105.126 65.2464C104.557 64.5603 103.72 64.1103 102.613 64.0163C91.2049 58.124 60.9676 39.6484 60.9676 39.6484L60.9286 40.08C60.9286 40.08 51.0195 61.2259 51.0195 66.3492L49.0014 63.996C45.2896 63.996 44.2509 67.6863 45.8851 71.3748C47.5174 75.0651 51.0195 76.1476 51.0195 76.1476L52.8003 81.0164C54.0876 84.4596 62.9931 100.3 76.2522 100.005C89.5132 99.7095 98.4187 86.9198 99.6059 78.8513L100.151 76.1476C100.151 76.1476 103.653 75.0651 105.286 71.3748C106.334 69.0068 106.278 66.6388 105.124 65.2464H105.126Z" fill="#FBD8AC"/>
<path d="M84.8274 107.338V96.3424L66.2724 96.1543L66.1927 107.998L55.6641 115.427C63.5976 128.03 85.3004 128.541 97.2387 114.274L84.8274 107.338Z" fill="#FBD8AC"/>
<path d="M11.5 193.259C12.2939 178.756 13.2307 161.486 13.5256 155.47C14.0691 144.411 20.3091 137.397 22.4794 134.97C24.6496 132.543 55.8534 115.425 55.8534 115.425L57.7361 193.515L11.5 193.259Z" fill="#F49C00"/>
<path d="M136.556 155.472C136.035 144.412 130.045 137.398 127.962 134.971C127.014 133.867 120.569 129.483 113.824 125.031L97.239 114.273L93.7666 194.001L138.5 193.26C137.738 178.757 136.838 161.488 136.556 155.472Z" fill="#F49C00"/>
<path d="M100.467 83.7227L95.9201 88.525C95.9201 88.525 95.2152 88.9806 97.239 107.517C99.2646 126.053 97.7008 132.604 106.035 152.086C104.33 141.089 112.622 143.124 113.98 118.14C115.336 93.1559 100.467 83.7227 100.467 83.7227Z" fill="#584132"/>
<circle cx="75" cy="75" r="74" stroke="#E07A8A" stroke-width="2"/>
</g>
</svg>
