<svg width="150" height="150" viewBox="0 0 150 150" fill="none" xmlns="http://www.w3.org/2000/svg">
<mask id="mask0_86_1333" style="mask-type:alpha" maskUnits="userSpaceOnUse" x="0" y="0" width="150" height="150">
<circle cx="75" cy="75" r="74.5" fill="white" stroke="black"/>
</mask>
<g mask="url(#mask0_86_1333)">
<path d="M78.6099 20.8193C62.4085 19.4848 59.7396 23.4883 57.6423 29.648C57.6423 29.648 52.3044 30.1589 50.506 35.2692C50.506 35.2692 33.6148 79.0375 40.0057 90.7194C46.3966 102.401 52.6867 104.271 56.8795 105.051L95.7635 103.204C102.434 101.91 112.919 104.69 115.996 76.8464C119.075 49.0032 94.813 22.1538 78.6099 20.8193Z" fill="#3F291B"/>
<path d="M104.948 118.775L85.7304 105.032V95.0098H64.5734V105.032L45.856 118.377L47.1418 139.537H103.928L104.948 118.775Z" fill="#FBD8AC"/>
<path d="M24.5741 186.656C24.5741 170.281 24.2822 149.089 28.8451 136.75C31.057 130.771 36.1308 126.076 36.1308 126.076L45.6355 117.904C45.6355 117.904 61.922 123.847 74.8011 123.657C87.6802 123.466 103.988 118.226 103.988 118.226L106.408 119.597C106.408 119.597 112.451 124.379 117.857 129.265C124.66 135.412 125.429 148.041 125.429 148.041V187L24.5741 186.656Z" fill="#FACD89"/>
<path d="M75.0026 25.8758C59.8299 26.5413 49.1402 40.3447 50.426 70.3756C50.426 70.3756 50.9073 76.3373 52.1567 79.7048C53.4077 83.0705 62.0627 98.5543 74.9487 98.2658C87.8348 97.9774 96.4915 85.4754 97.6453 77.5902C98.799 69.7049 98.799 68.261 98.799 68.261C98.9589 63.5417 90.1753 25.2103 75.0026 25.8758Z" fill="#FBD8AC"/>
<path d="M64.5737 35.1776C64.5737 35.1776 67.6823 32.2654 74.7369 34.3957C81.7916 36.526 86.1825 42.3817 86.1825 42.3817C86.1825 42.3817 82.855 30.8023 75.0028 29.871C67.1506 28.9396 66.9212 33.0334 64.5737 35.1776Z" fill="#3F291B"/>
<path d="M63.2807 37.8828C63.2807 37.8828 49.9064 70.68 48.2226 76.7546C45.6353 86.0907 47.2704 102.082 56.7994 104.959C52.6066 104.177 46.3165 102.309 39.9256 90.6276C33.5347 78.9457 50.4259 35.1774 50.4259 35.1774C52.2243 30.0671 57.5622 29.5562 57.5622 29.5562C59.6595 23.3965 62.3267 19.393 78.5298 20.7275C94.7312 22.062 118.995 48.9114 115.918 76.7546C112.84 104.598 102.357 101.818 95.6851 103.112C100.45 101.246 104.073 88.5859 101.975 76.7546C99.8779 64.9233 84.5367 34.7934 76.4221 32.8872C68.3075 30.9811 64.5734 35.1774 64.5734 35.1774L63.2807 37.8828Z" fill="#584132"/>
<circle cx="75" cy="75" r="74" stroke="#E07A8A" stroke-width="2"/>
</g>
</svg>
