<svg width="150" height="150" viewBox="0 0 150 150" fill="none" xmlns="http://www.w3.org/2000/svg">
<mask id="mask0_86_1291" style="mask-type:alpha" maskUnits="userSpaceOnUse" x="0" y="0" width="150" height="150">
<circle cx="75" cy="75" r="74.5" fill="white" stroke="black"/>
</mask>
<g mask="url(#mask0_86_1291)">
<path d="M105.108 98.7009L104.33 60.752L51.3615 61.925L42.9432 91.3985C44.7979 98.0369 44.9721 101.863 43.4876 106.989C42.0031 112.116 38.7264 111.114 39.8812 117.981L109.248 122.566L109.896 116.176L105.104 98.7009H105.108Z" fill="#3F291B"/>
<path d="M83.3507 91.1379L64.5544 90.7275L64.9146 101.643C64.9146 101.643 69.6234 105.484 74.2848 106.788C78.9462 108.092 83.7379 103.007 83.7379 103.007L83.349 91.1396L83.3507 91.1379Z" fill="#FBD8AC"/>
<path d="M74.1986 30.6707C52.4419 30.4102 50.1965 59.8819 50.6294 66.2292C50.6294 66.2292 51.7368 73.094 52.9102 76.2727C54.0836 79.4515 62.201 94.075 74.2865 93.8026C86.3738 93.5302 94.4912 81.7227 95.5733 74.2739C95.5733 74.2739 99.1188 73.6201 99.3183 69.9306C99.7444 62.0698 95.9571 30.9295 74.1986 30.669V30.6707Z" fill="#FBD8AC"/>
<path d="M120.786 137.711C120.786 137.711 117.036 123.777 111.502 119.965L85.7398 101.642C74.3863 108.537 64.9146 101.642 64.9146 101.642L42.3632 115.402L37.8776 120.067C37.8776 120.067 33.1181 124.502 31.0435 130.15C26.7642 141.804 20.5388 167.05 16.9578 181.774L133.042 181.04C128.344 161.43 120.786 137.711 120.786 137.711Z" fill="#F49C00"/>
<path d="M42.5626 92.5899C29.7652 25.9967 67.9427 24.117 67.9427 24.117L70.1458 23.4002C70.1458 23.4002 83.2881 12.3419 95.4244 32.6197C107.143 52.1995 111.81 58.0989 110.633 71.0267C109.378 84.7972 106.181 89.8896 109.148 97.3606C112.116 104.832 113.414 118.466 109.334 122.576C107.85 123.696 101.173 127.219 101.173 127.219C101.173 127.219 108.65 118.161 106.424 110.249C104.199 102.337 99.6885 102.031 98.576 91.9412C97.4634 81.8517 103.212 78.8722 99.3182 69.9336C95.4227 60.995 79.3368 36.236 79.3368 36.236H78.8194C78.8194 36.236 57.5868 33.5885 53.8772 53.8033C50.1677 74.0164 48.3129 76.2723 48.3129 76.2723C45.3456 82.4204 43.5044 90.7682 44.1536 95.9645L42.5626 92.5916V92.5899Z" fill="#584132"/>
<path d="M84.4294 99.0496C84.4294 99.0496 87.0755 102.591 89.1162 105.766C91.157 108.942 93.568 109.732 91.8976 115.033C90.2288 120.335 87.3731 124.258 87.8735 126.124C88.374 127.992 89.0976 128.739 89.0976 128.739C89.0976 128.739 95.4025 130.381 101.171 127.219L101.782 126.957C105.148 124.217 106.617 115.958 106.617 115.958C106.617 115.958 91.2787 103.888 84.4294 99.0479V99.0496Z" fill="#3F291B"/>
<circle cx="75" cy="75" r="74" stroke="#E07A8A" stroke-width="2"/>
</g>
</svg>
